STARTFONT 2.1
COMMENT
COMMENT Converted from OpenType font "Patriot-Normal.otf" by "otf2bdf 3.0".
COMMENT
FONT -FreeType-Patriot Normal-Medium-R-Normal--28-200-100-100-P-132-ISO10646-1
SIZE 20 100 100
FONTBOUNDINGBOX 43 36 -10 -7
STARTPROPERTIES 19
FOUNDRY "FreeType"
FAMILY_NAME "Patriot Normal"
WEIGHT_NAME "Medium"
SLANT "R"
SETWIDTH_NAME "Normal"
ADD_STYLE_NAME ""
PIXEL_SIZE 28
POINT_SIZE 200
RESOLUTION_X 100
RESOLUTION_Y 100
SPACING "P"
AVERAGE_WIDTH 132
CHARSET_REGISTRY "ISO10646"
CHARSET_ENCODING "1"
FONT_ASCENT 28
FONT_DESCENT 5
COPYRIGHT "Copyright © 2020 by Behalf Studio. All rights reserved."
_OTF_FONTFILE "Patriot-Normal.otf"
_OTF_PSNAME "Patriot-Normal"
ENDPROPERTIES
CHARS 426
STARTCHAR 0020
ENCODING 32
SWIDTH 324 0
DWIDTH 9 0
BBX 0 0 0 0
BITMAP
ENDCHAR
STARTCHAR 0021
ENCODING 33
SWIDTH 216 0
DWIDTH 6 0
BBX 4 19 1 0
BITMAP
60
60
60
60
60
60
60
60
60
60
60
60
00
00
00
00
70
F0
70
ENDCHAR
STARTCHAR 0022
ENCODING 34
SWIDTH 288 0
DWIDTH 8 0
BBX 5 6 2 13
BITMAP
98
98
98
98
98
98
ENDCHAR
STARTCHAR 0023
ENCODING 35
SWIDTH 612 0
DWIDTH 17 0
BBX 15 19 1 0
BITMAP
0618
0618
0418
0418
0C10
0C10
7FFE
0C30
0C30
0830
0830
1830
FFFC
1860
1860
1860
1060
1060
3060
ENDCHAR
STARTCHAR 0024
ENCODING 36
SWIDTH 504 0
DWIDTH 14 0
BBX 12 24 1 -2
BITMAP
0300
0300
0F80
1FC0
3AE0
3270
7230
7200
3200
3A00
1E00
0700
03C0
02E0
0270
0230
0230
E230
6230
7270
3FE0
1FC0
0300
0300
ENDCHAR
STARTCHAR 0025
ENCODING 37
SWIDTH 828 0
DWIDTH 23 0
BBX 21 20 1 0
BITMAP
1E0000
3F80C0
618180
60C100
C0C300
C0C600
61CC00
738C00
3F1800
003000
003000
0063C0
00C7F0
008C30
018C18
030818
060C18
060C18
0C0E30
1807E0
ENDCHAR
STARTCHAR 0026
ENCODING 38
SWIDTH 648 0
DWIDTH 18 0
BBX 16 20 1 0
BITMAP
0700
1FC0
38E0
3070
6020
6000
6000
3000
3C00
1FFF
3FFF
700C
600C
E00C
E01C
6018
6038
7070
3FE0
0FC0
ENDCHAR
STARTCHAR 0027
ENCODING 39
SWIDTH 144 0
DWIDTH 4 0
BBX 2 6 1 13
BITMAP
C0
C0
C0
C0
C0
C0
ENDCHAR
STARTCHAR 0028
ENCODING 40
SWIDTH 288 0
DWIDTH 8 0
BBX 6 25 1 -4
BITMAP
0C
0C
18
18
30
30
60
60
60
40
40
C0
C0
C0
C0
40
60
60
60
20
30
30
18
18
0C
ENDCHAR
STARTCHAR 0029
ENCODING 41
SWIDTH 288 0
DWIDTH 8 0
BBX 5 26 2 -4
BITMAP
80
C0
C0
60
20
30
30
18
18
18
18
08
08
08
18
18
18
18
10
30
30
60
60
C0
C0
80
ENDCHAR
STARTCHAR 002A
ENCODING 42
SWIDTH 432 0
DWIDTH 12 0
BBX 9 9 2 10
BITMAP
1800
1800
1800
DB80
FF80
1800
3E00
7600
6700
ENDCHAR
STARTCHAR 002B
ENCODING 43
SWIDTH 540 0
DWIDTH 15 0
BBX 13 12 1 3
BITMAP
0300
0300
0300
0300
0300
FFF8
FFF8
0300
0300
0300
0300
0300
ENDCHAR
STARTCHAR 002C
ENCODING 44
SWIDTH 252 0
DWIDTH 7 0
BBX 3 5 2 -3
BITMAP
60
60
C0
C0
80
ENDCHAR
STARTCHAR 002D
ENCODING 45
SWIDTH 432 0
DWIDTH 12 0
BBX 10 1 1 6
BITMAP
FFC0
ENDCHAR
STARTCHAR 002E
ENCODING 46
SWIDTH 216 0
DWIDTH 6 0
BBX 4 3 1 0
BITMAP
70
F0
70
ENDCHAR
STARTCHAR 002F
ENCODING 47
SWIDTH 360 0
DWIDTH 10 0
BBX 7 20 2 0
BITMAP
06
06
04
0C
0C
08
18
18
18
10
30
30
20
60
60
60
40
C0
C0
80
ENDCHAR
STARTCHAR 0030
ENCODING 48
SWIDTH 684 0
DWIDTH 19 0
BBX 17 20 1 0
BITMAP
03E000
0FF800
1C1E00
380700
700300
600380
C00180
C00180
C00180
C00180
C00180
C00180
C00180
C00180
E00180
600300
700700
380E00
1F7C00
07F800
ENDCHAR
STARTCHAR 0031
ENCODING 49
SWIDTH 252 0
DWIDTH 7 0
BBX 5 19 1 0
BITMAP
18
F8
F8
18
18
18
18
18
18
18
18
18
18
18
18
18
18
18
18
ENDCHAR
STARTCHAR 0032
ENCODING 50
SWIDTH 504 0
DWIDTH 14 0
BBX 13 20 1 0
BITMAP
0F00
3FC0
70E0
6030
E030
C030
4030
0030
0030
0060
00E0
00C0
0180
0300
0600
0C00
1800
3000
7FF8
FFF8
ENDCHAR
STARTCHAR 0033
ENCODING 51
SWIDTH 504 0
DWIDTH 14 0
BBX 13 19 1 0
BITMAP
FFF0
00E0
0180
0300
0600
0C00
3F80
7BE0
2070
0030
0030
0018
0018
0038
0030
4030
E060
7BE0
3F80
ENDCHAR
STARTCHAR 0034
ENCODING 52
SWIDTH 504 0
DWIDTH 14 0
BBX 14 19 0 0
BITMAP
01F0
07F0
0E30
1830
3830
3030
6030
6030
6030
C030
C030
FFFC
FFFC
0030
0030
0030
0030
0030
0030
ENDCHAR
STARTCHAR 0035
ENCODING 53
SWIDTH 504 0
DWIDTH 14 0
BBX 13 19 1 0
BITMAP
7FF0
6000
6000
6000
6000
6000
5FC0
FDE0
E070
0038
0018
0018
0018
0018
0018
4030
E070
7FE0
3FC0
ENDCHAR
STARTCHAR 0036
ENCODING 54
SWIDTH 576 0
DWIDTH 16 0
BBX 15 19 1 0
BITMAP
0180
0300
0700
0E00
0C00
1BE0
3FF0
3838
701C
600C
C006
C006
C006
C006
600C
600C
3018
3EF0
0FE0
ENDCHAR
STARTCHAR 0037
ENCODING 55
SWIDTH 396 0
DWIDTH 11 0
BBX 11 19 1 0
BITMAP
FFE0
0060
00C0
00C0
0180
0180
0180
7FC0
7FC0
0600
0600
0600
0C00
0C00
1800
1800
3800
3000
3000
ENDCHAR
STARTCHAR 0038
ENCODING 56
SWIDTH 540 0
DWIDTH 15 0
BBX 14 20 1 0
BITMAP
0780
1FC0
1860
3060
3060
1860
1CE0
0FC0
3FF0
7038
E018
C00C
C00C
C00C
C00C
C01C
E018
7038
3FF0
1FC0
ENDCHAR
STARTCHAR 0039
ENCODING 57
SWIDTH 576 0
DWIDTH 16 0
BBX 15 20 1 0
BITMAP
0780
1FF0
3878
6018
E00C
C00C
C00C
C006
C00C
C00C
600C
7018
3C78
1FF0
0360
00E0
00C0
0180
0300
0300
ENDCHAR
STARTCHAR 003A
ENCODING 58
SWIDTH 216 0
DWIDTH 6 0
BBX 4 13 1 0
BITMAP
70
F0
70
20
00
00
00
00
00
00
70
F0
70
ENDCHAR
STARTCHAR 003B
ENCODING 59
SWIDTH 252 0
DWIDTH 7 0
BBX 4 16 2 -3
BITMAP
70
F0
70
20
00
00
00
00
00
00
00
60
60
C0
C0
80
ENDCHAR
STARTCHAR 003C
ENCODING 60
SWIDTH 540 0
DWIDTH 15 0
BBX 13 11 1 3
BITMAP
0018
00F8
07C0
1E00
F800
E000
7C00
0F00
03E0
0078
0008
ENDCHAR
STARTCHAR 003D
ENCODING 61
SWIDTH 540 0
DWIDTH 15 0
BBX 13 8 1 5
BITMAP
FFF8
FFF8
0000
0000
0000
0000
FFF8
FFF8
ENDCHAR
STARTCHAR 003E
ENCODING 62
SWIDTH 540 0
DWIDTH 15 0
BBX 13 11 1 3
BITMAP
C000
7800
1F00
03C0
0078
0018
00F0
07C0
3E00
F000
C000
ENDCHAR
STARTCHAR 003F
ENCODING 63
SWIDTH 396 0
DWIDTH 11 0
BBX 8 20 2 0
BITMAP
18
7E
C7
C3
03
03
06
06
0C
18
18
30
30
30
00
00
00
38
78
38
ENDCHAR
STARTCHAR 0040
ENCODING 64
SWIDTH 756 0
DWIDTH 21 0
BBX 19 20 1 0
BITMAP
00F800
03FF00
0E0380
1800C0
300060
207060
61FC20
418C20
430C20
C30C20
C30C20
C30C60
431CC0
61FF80
60E300
300000
180000
1C01C0
070780
01FE00
ENDCHAR
STARTCHAR 0041
ENCODING 65
SWIDTH 540 0
DWIDTH 15 0
BBX 14 20 1 0
BITMAP
0F00
3FC0
70E0
6060
6070
E030
C030
C030
C030
C030
C030
C030
C030
C030
C030
C030
C030
C030
FFFC
FFFC
ENDCHAR
STARTCHAR 0042
ENCODING 66
SWIDTH 576 0
DWIDTH 16 0
BBX 15 19 1 0
BITMAP
3FF0
30F8
301C
300C
300C
300C
300C
3018
FFF0
FFF8
301C
300C
300E
3006
300E
300C
301C
3FF8
3FE0
ENDCHAR
STARTCHAR 0043
ENCODING 67
SWIDTH 648 0
DWIDTH 18 0
BBX 17 20 1 0
BITMAP
01F800
07FE00
1F0780
380180
300080
600000
600000
C00000
C00000
C00000
C00000
C00000
C00000
E00000
600000
700000
380180
1C0380
0FFF00
03FC00
ENDCHAR
STARTCHAR 0044
ENCODING 68
SWIDTH 612 0
DWIDTH 17 0
BBX 16 19 1 0
BITMAP
FFC0
E7F0
E038
E01C
E00E
E006
E006
E007
E003
E003
E003
E007
E006
E006
E00C
E01C
E078
FFE0
FF80
ENDCHAR
STARTCHAR 0045
ENCODING 69
SWIDTH 468 0
DWIDTH 13 0
BBX 12 19 1 0
BITMAP
3F80
3000
3000
3000
3000
3000
3000
3000
FFC0
FFC0
3000
3000
3000
3000
3000
3000
3000
3FF0
3FF0
ENDCHAR
STARTCHAR 0046
ENCODING 70
SWIDTH 432 0
DWIDTH 12 0
BBX 11 19 1 0
BITMAP
3FE0
3000
3000
3000
3000
3000
3000
3000
3000
FFE0
FFE0
3000
3000
3000
3000
3000
3000
3000
3000
ENDCHAR
STARTCHAR 0047
ENCODING 71
SWIDTH 828 0
DWIDTH 23 0
BBX 22 20 1 0
BITMAP
01F800
07FE00
1F0780
3801C0
300080
600000
600000
C00000
C00000
C07FFC
C07FFC
C00030
C00030
E00030
600060
7000E0
3801C0
1C0380
0FFF00
03FE00
ENDCHAR
STARTCHAR 0048
ENCODING 72
SWIDTH 540 0
DWIDTH 15 0
BBX 13 19 1 0
BITMAP
3018
3018
3018
3018
3018
3018
3018
FFF8
FFF8
3018
3018
3018
3018
3018
3018
3018
3018
3018
3018
ENDCHAR
STARTCHAR 0049
ENCODING 73
SWIDTH 144 0
DWIDTH 4 0
BBX 5 21 0 1
BITMAP
20
20
F8
70
50
00
00
00
00
60
60
60
60
60
60
60
60
60
60
60
60
ENDCHAR
STARTCHAR 004A
ENCODING 74
SWIDTH 432 0
DWIDTH 12 0
BBX 10 19 1 0
BITMAP
03C0
00C0
00C0
00C0
00C0
00C0
00C0
00C0
00C0
00C0
00C0
00C0
00C0
00C0
00C0
C0C0
C1C0
FF80
7F00
ENDCHAR
STARTCHAR 004B
ENCODING 75
SWIDTH 504 0
DWIDTH 14 0
BBX 12 19 1 0
BITMAP
3060
3060
3060
3060
3060
3060
30C0
31C0
FF80
FFC0
30E0
3070
3030
3030
3030
3030
3030
3030
3030
ENDCHAR
STARTCHAR 004C
ENCODING 76
SWIDTH 396 0
DWIDTH 11 0
BBX 10 19 1 0
BITMAP
E000
E000
E000
E000
E000
E000
E000
E000
E000
E000
E000
E000
E000
E000
E000
E000
E000
FFC0
FFC0
ENDCHAR
STARTCHAR 004D
ENCODING 77
SWIDTH 828 0
DWIDTH 23 0
BBX 22 20 0 0
BITMAP
401000
E0180C
381C0C
3C1F0C
3E1B8C
3799CC
31D8EC
30F83C
30781C
30180C
30180C
30180C
30180C
30180C
30180C
30180C
30180C
30180C
30180C
30180C
ENDCHAR
STARTCHAR 004E
ENCODING 78
SWIDTH 468 0
DWIDTH 13 0
BBX 13 20 0 0
BITMAP
4000
E038
7838
7C38
6E38
67B8
61F8
60F8
6078
6038
6038
6038
6038
6038
6038
6038
6038
6038
6038
6038
ENDCHAR
STARTCHAR 004F
ENCODING 79
SWIDTH 792 0
DWIDTH 22 0
BBX 21 20 1 0
BITMAP
01F800
07FF00
1F0780
3801C0
3000E0
600060
600030
C00030
C00038
C00038
C00018
C00038
C00030
E00030
600070
700060
3800E0
1C03C0
0FFF80
03FE00
ENDCHAR
STARTCHAR 0050
ENCODING 80
SWIDTH 540 0
DWIDTH 15 0
BBX 14 19 1 0
BITMAP
7FE0
61F0
6038
601C
600C
600C
600C
6018
6038
61F0
FFE0
6000
6000
6000
6000
6000
6000
6000
6000
ENDCHAR
STARTCHAR 0051
ENCODING 81
SWIDTH 792 0
DWIDTH 22 0
BBX 21 20 1 -1
BITMAP
01F800
07FF00
1F0780
3801C0
3000E0
600060
600030
C00030
C00038
C00038
C00018
C00038
C00030
E00030
600670
700760
3803E0
1C03C0
0FFFE0
03FE60
ENDCHAR
STARTCHAR 0052
ENCODING 82
SWIDTH 540 0
DWIDTH 15 0
BBX 14 19 1 0
BITMAP
3FE0
31F8
3018
301C
300C
300C
300C
301C
3038
FFF0
FFE0
30F0
3030
3038
3018
3018
3018
3018
3018
ENDCHAR
STARTCHAR 0053
ENCODING 83
SWIDTH 468 0
DWIDTH 13 0
BBX 12 20 1 0
BITMAP
0F00
3FC0
71C0
60E0
6060
6000
6000
3000
1C00
0F00
0380
01C0
00E0
0060
0030
C030
C060
6060
7FE0
3F80
ENDCHAR
STARTCHAR 0054
ENCODING 84
SWIDTH 468 0
DWIDTH 13 0
BBX 12 19 1 0
BITMAP
FFF0
0600
0600
0600
0600
0600
0600
0600
0600
0600
0600
0600
0600
0600
0600
0600
0600
0600
0600
ENDCHAR
STARTCHAR 0055
ENCODING 85
SWIDTH 468 0
DWIDTH 13 0
BBX 12 19 1 0
BITMAP
C030
C030
C030
C030
C030
C030
C030
C030
C030
C030
C030
C030
C030
C030
C060
6060
60E0
3FC0
1F80
ENDCHAR
STARTCHAR 0056
ENCODING 86
SWIDTH 432 0
DWIDTH 12 0
BBX 11 19 0 0
BITMAP
C060
C060
C060
C060
C060
C060
C060
C060
C060
C060
C060
E060
6060
60E0
60C0
30C0
3980
1B80
0F00
ENDCHAR
STARTCHAR 0057
ENCODING 87
SWIDTH 756 0
DWIDTH 21 0
BBX 20 19 0 0
BITMAP
C06030
C06030
C06030
C06030
C06030
C06030
C06030
C06030
C06030
C06030
C06030
E07030
607030
60F070
60F060
30D8E0
399CC0
1B8DC0
0F0780
ENDCHAR
STARTCHAR 0058
ENCODING 88
SWIDTH 504 0
DWIDTH 14 0
BBX 12 19 1 0
BITMAP
C030
C030
C030
C030
6070
6060
70E0
3FC0
3FC0
70E0
6060
6070
C030
C030
C030
C030
C030
C030
C030
ENDCHAR
STARTCHAR 0059
ENCODING 89
SWIDTH 468 0
DWIDTH 13 0
BBX 12 19 1 0
BITMAP
C070
C070
C070
C070
C070
C070
C070
C070
C060
C060
E060
60E0
3FC0
1F80
0600
0600
0600
0600
0600
ENDCHAR
STARTCHAR 005A
ENCODING 90
SWIDTH 468 0
DWIDTH 13 0
BBX 12 19 1 0
BITMAP
FFF0
0070
0060
00C0
01C0
0180
0380
0300
0600
0E00
0C00
1C00
1800
3000
7000
6000
E000
FFF0
FFF0
ENDCHAR
STARTCHAR 005B
ENCODING 91
SWIDTH 216 0
DWIDTH 6 0
BBX 4 26 1 -4
BITMAP
F0
C0
C0
C0
C0
C0
C0
C0
C0
C0
C0
C0
C0
C0
C0
C0
C0
C0
C0
C0
C0
C0
C0
C0
F0
F0
ENDCHAR
STARTCHAR 005C
ENCODING 92
SWIDTH 360 0
DWIDTH 10 0
BBX 7 20 2 0
BITMAP
80
C0
C0
C0
40
60
60
20
30
30
30
10
18
18
08
0C
0C
0C
04
06
ENDCHAR
STARTCHAR 005D
ENCODING 93
SWIDTH 216 0
DWIDTH 6 0
BBX 4 26 1 -4
BITMAP
F0
30
30
30
30
30
30
30
30
30
30
30
30
30
30
30
30
30
30
30
30
30
30
30
F0
F0
ENDCHAR
STARTCHAR 005E
ENCODING 94
SWIDTH 432 0
DWIDTH 12 0
BBX 9 7 2 10
BITMAP
1C00
1C00
3600
6600
6300
C100
C180
ENDCHAR
STARTCHAR 005F
ENCODING 95
SWIDTH 504 0
DWIDTH 14 0
BBX 12 2 1 -3
BITMAP
FFF0
FFF0
ENDCHAR
STARTCHAR 0060
ENCODING 96
SWIDTH 144 0
DWIDTH 4 0
BBX 4 4 0 21
BITMAP
C0
60
20
30
ENDCHAR
STARTCHAR 0061
ENCODING 97
SWIDTH 540 0
DWIDTH 15 0
BBX 14 20 1 0
BITMAP
0F00
3FC0
70E0
6060
6070
E030
C030
C030
C030
C030
C030
C030
C030
C030
C030
C030
C030
C030
FFFC
FFFC
ENDCHAR
STARTCHAR 0062
ENCODING 98
SWIDTH 576 0
DWIDTH 16 0
BBX 15 19 1 0
BITMAP
3FF0
30F8
301C
300C
300C
300C
300C
3018
FFF0
FFF8
301C
300C
300E
3006
300E
300C
301C
3FF8
3FE0
ENDCHAR
STARTCHAR 0063
ENCODING 99
SWIDTH 648 0
DWIDTH 18 0
BBX 17 20 1 0
BITMAP
01F800
07FE00
1F0780
380180
300080
600000
600000
C00000
C00000
C00000
C00000
C00000
C00000
E00000
600000
700000
380180
1C0380
0FFF00
03FC00
ENDCHAR
STARTCHAR 0064
ENCODING 100
SWIDTH 612 0
DWIDTH 17 0
BBX 16 19 1 0
BITMAP
FFC0
E7F0
E038
E01C
E00E
E006
E006
E007
E003
E003
E003
E007
E006
E006
E00C
E01C
E078
FFE0
FF80
ENDCHAR
STARTCHAR 0065
ENCODING 101
SWIDTH 468 0
DWIDTH 13 0
BBX 12 19 1 0
BITMAP
3F80
3000
3000
3000
3000
3000
3000
3000
FFC0
FFC0
3000
3000
3000
3000
3000
3000
3000
3FF0
3FF0
ENDCHAR
STARTCHAR 0066
ENCODING 102
SWIDTH 432 0
DWIDTH 12 0
BBX 11 19 1 0
BITMAP
3FE0
3000
3000
3000
3000
3000
3000
3000
3000
FFE0
FFE0
3000
3000
3000
3000
3000
3000
3000
3000
ENDCHAR
STARTCHAR 0067
ENCODING 103
SWIDTH 828 0
DWIDTH 23 0
BBX 22 20 1 0
BITMAP
01F800
07FE00
1F0780
3801C0
300080
600000
600000
C00000
C00000
C07FFC
C07FFC
C00030
C00030
E00030
600060
7000E0
3801C0
1C0380
0FFF00
03FE00
ENDCHAR
STARTCHAR 0068
ENCODING 104
SWIDTH 540 0
DWIDTH 15 0
BBX 13 19 1 0
BITMAP
3018
3018
3018
3018
3018
3018
3018
FFF8
FFF8
3018
3018
3018
3018
3018
3018
3018
3018
3018
3018
ENDCHAR
STARTCHAR 0069
ENCODING 105
SWIDTH 144 0
DWIDTH 4 0
BBX 5 21 0 1
BITMAP
20
20
F8
70
50
00
00
00
00
60
60
60
60
60
60
60
60
60
60
60
60
ENDCHAR
STARTCHAR 006A
ENCODING 106
SWIDTH 432 0
DWIDTH 12 0
BBX 10 19 1 0
BITMAP
03C0
00C0
00C0
00C0
00C0
00C0
00C0
00C0
00C0
00C0
00C0
00C0
00C0
00C0
00C0
C0C0
C1C0
FF80
7F00
ENDCHAR
STARTCHAR 006B
ENCODING 107
SWIDTH 504 0
DWIDTH 14 0
BBX 12 19 1 0
BITMAP
3060
3060
3060
3060
3060
3060
30C0
31C0
FF80
FFC0
30E0
3070
3030
3030
3030
3030
3030
3030
3030
ENDCHAR
STARTCHAR 006C
ENCODING 108
SWIDTH 396 0
DWIDTH 11 0
BBX 10 19 1 0
BITMAP
E000
E000
E000
E000
E000
E000
E000
E000
E000
E000
E000
E000
E000
E000
E000
E000
E000
FFC0
FFC0
ENDCHAR
STARTCHAR 006D
ENCODING 109
SWIDTH 828 0
DWIDTH 23 0
BBX 22 20 0 0
BITMAP
401000
E0180C
381C0C
3C1F0C
3E1B8C
3799CC
31D8EC
30F83C
30781C
30180C
30180C
30180C
30180C
30180C
30180C
30180C
30180C
30180C
30180C
30180C
ENDCHAR
STARTCHAR 006E
ENCODING 110
SWIDTH 468 0
DWIDTH 13 0
BBX 13 20 0 0
BITMAP
4000
E038
7838
7C38
6E38
67B8
61F8
60F8
6078
6038
6038
6038
6038
6038
6038
6038
6038
6038
6038
6038
ENDCHAR
STARTCHAR 006F
ENCODING 111
SWIDTH 792 0
DWIDTH 22 0
BBX 21 20 1 0
BITMAP
01F800
07FF00
1F0780
3801C0
3000E0
600060
600030
C00030
C00038
C00038
C00018
C00038
C00030
E00030
600070
700060
3800E0
1C03C0
0FFF80
03FE00
ENDCHAR
STARTCHAR 0070
ENCODING 112
SWIDTH 540 0
DWIDTH 15 0
BBX 14 19 1 0
BITMAP
7FE0
61F0
6038
601C
600C
600C
600C
6018
6038
61F0
FFE0
6000
6000
6000
6000
6000
6000
6000
6000
ENDCHAR
STARTCHAR 0071
ENCODING 113
SWIDTH 792 0
DWIDTH 22 0
BBX 21 20 1 -1
BITMAP
01F800
07FF00
1F0780
3801C0
3000E0
600060
600030
C00030
C00038
C00038
C00018
C00038
C00030
E00030
600670
700760
3803E0
1C03C0
0FFFE0
03FE60
ENDCHAR
STARTCHAR 0072
ENCODING 114
SWIDTH 540 0
DWIDTH 15 0
BBX 14 19 1 0
BITMAP
3FE0
31F8
3018
301C
300C
300C
300C
301C
3038
FFF0
FFE0
30F0
3030
3038
3018
3018
3018
3018
3018
ENDCHAR
STARTCHAR 0073
ENCODING 115
SWIDTH 468 0
DWIDTH 13 0
BBX 12 20 1 0
BITMAP
0F00
3FC0
71C0
60E0
6060
6000
6000
3000
1C00
0F00
0380
01C0
00E0
0060
0030
C030
C060
6060
7FE0
3F80
ENDCHAR
STARTCHAR 0074
ENCODING 116
SWIDTH 468 0
DWIDTH 13 0
BBX 12 19 1 0
BITMAP
FFF0
0600
0600
0600
0600
0600
0600
0600
0600
0600
0600
0600
0600
0600
0600
0600
0600
0600
0600
ENDCHAR
STARTCHAR 0075
ENCODING 117
SWIDTH 468 0
DWIDTH 13 0
BBX 12 19 1 0
BITMAP
C030
C030
C030
C030
C030
C030
C030
C030
C030
C030
C030
C030
C030
C030
C060
6060
60E0
3FC0
1F80
ENDCHAR
STARTCHAR 0076
ENCODING 118
SWIDTH 432 0
DWIDTH 12 0
BBX 11 19 0 0
BITMAP
C060
C060
C060
C060
C060
C060
C060
C060
C060
C060
C060
E060
6060
60E0
60C0
30C0
3980
1B80
0F00
ENDCHAR
STARTCHAR 0077
ENCODING 119
SWIDTH 756 0
DWIDTH 21 0
BBX 20 19 0 0
BITMAP
C06030
C06030
C06030
C06030
C06030
C06030
C06030
C06030
C06030
C06030
C06030
E07030
607030
60F070
60F060
30D8E0
399CC0
1B8DC0
0F0780
ENDCHAR
STARTCHAR 0078
ENCODING 120
SWIDTH 504 0
DWIDTH 14 0
BBX 12 19 1 0
BITMAP
C030
C030
C030
C030
6070
6060
70E0
3FC0
3FC0
70E0
6060
6070
C030
C030
C030
C030
C030
C030
C030
ENDCHAR
STARTCHAR 0079
ENCODING 121
SWIDTH 468 0
DWIDTH 13 0
BBX 12 19 1 0
BITMAP
C070
C070
C070
C070
C070
C070
C070
C070
C060
C060
E060
60E0
3FC0
1F80
0600
0600
0600
0600
0600
ENDCHAR
STARTCHAR 007A
ENCODING 122
SWIDTH 468 0
DWIDTH 13 0
BBX 12 19 1 0
BITMAP
FFF0
0070
0060
00C0
01C0
0180
0380
0300
0600
0E00
0C00
1C00
1800
3000
7000
6000
E000
FFF0
FFF0
ENDCHAR
STARTCHAR 007B
ENCODING 123
SWIDTH 324 0
DWIDTH 9 0
BBX 7 26 1 -4
BITMAP
1E
18
18
10
10
10
10
10
10
10
30
70
E0
E0
30
10
10
10
10
10
10
10
10
18
1E
0E
ENDCHAR
STARTCHAR 007C
ENCODING 124
SWIDTH 144 0
DWIDTH 4 0
BBX 2 23 1 -3
BITMAP
C0
C0
C0
C0
C0
C0
C0
C0
C0
C0
C0
C0
C0
C0
C0
C0
C0
C0
C0
C0
C0
C0
C0
ENDCHAR
STARTCHAR 007D
ENCODING 125
SWIDTH 324 0
DWIDTH 9 0
BBX 7 26 1 -4
BITMAP
F0
18
18
18
18
18
18
18
18
18
18
0C
0E
0E
18
18
18
18
18
18
18
18
18
18
F0
E0
ENDCHAR
STARTCHAR 007E
ENCODING 126
SWIDTH 504 0
DWIDTH 14 0
BBX 13 3 1 7
BITMAP
FF08
FFF8
0040
ENDCHAR
STARTCHAR 00A1
ENCODING 161
SWIDTH 216 0
DWIDTH 6 0
BBX 4 20 1 -3
BITMAP
60
70
F0
70
00
00
00
60
60
60
60
60
60
60
60
60
60
60
60
60
ENDCHAR
STARTCHAR 00A2
ENCODING 162
SWIDTH 504 0
DWIDTH 14 0
BBX 12 17 1 1
BITMAP
0300
0300
0FC0
3FE0
3320
6300
4300
C300
C300
4300
6300
6300
3370
1FE0
0780
0300
0300
ENDCHAR
STARTCHAR 00A3
ENCODING 163
SWIDTH 504 0
DWIDTH 14 0
BBX 12 20 1 0
BITMAP
01E0
0FF0
1E10
1800
3800
3000
3000
3000
3800
FFE0
FFE0
0C00
0C00
0C00
0E00
0C00
0C00
1C00
FFF0
FFF0
ENDCHAR
STARTCHAR 00A4
ENCODING 164
SWIDTH 540 0
DWIDTH 15 0
BBX 12 12 2 3
BITMAP
8030
DFE0
71C0
6060
C060
C020
C020
C060
6060
70C0
FFE0
8430
ENDCHAR
STARTCHAR 00A5
ENCODING 165
SWIDTH 612 0
DWIDTH 17 0
BBX 13 19 2 1
BITMAP
C018
E018
6030
7030
3060
1860
18C0
0CC0
0F80
0780
7FF0
0300
0300
7FF0
7FF0
0300
0300
0300
0300
ENDCHAR
STARTCHAR 00A6
ENCODING 166
SWIDTH 144 0
DWIDTH 4 0
BBX 2 23 1 -3
BITMAP
C0
C0
C0
C0
C0
C0
C0
C0
C0
00
00
00
00
00
C0
C0
C0
C0
C0
C0
C0
C0
C0
ENDCHAR
STARTCHAR 00A7
ENCODING 167
SWIDTH 432 0
DWIDTH 12 0
BBX 10 23 1 -3
BITMAP
0E00
3F80
31C0
60C0
60C0
3000
3C00
0E00
3F80
73C0
60C0
C0C0
60C0
70C0
3F80
1E00
0700
0180
0180
60C0
7180
3F80
1F00
ENDCHAR
STARTCHAR 00A8
ENCODING 168
SWIDTH 324 0
DWIDTH 9 0
BBX 10 4 0 21
BITMAP
6180
F3C0
F3C0
7380
ENDCHAR
STARTCHAR 00A9
ENCODING 169
SWIDTH 828 0
DWIDTH 23 0
BBX 21 20 1 0
BITMAP
00FC00
07CF00
0C01C0
180040
300020
20F830
61DE10
430418
420018
C60008
C60008
C20018
430018
438618
61FC10
203030
300060
1800C0
060380
03FE00
ENDCHAR
STARTCHAR 00AB
ENCODING 171
SWIDTH 504 0
DWIDTH 14 0
BBX 11 13 2 2
BITMAP
0C60
18C0
1980
3180
6300
C600
CC00
C600
6300
3180
1980
1CC0
0C60
ENDCHAR
STARTCHAR 00AC
ENCODING 172
SWIDTH 540 0
DWIDTH 15 0
BBX 13 7 1 3
BITMAP
FFF8
FFF8
0018
0018
0018
0018
0018
ENDCHAR
STARTCHAR 00AE
ENCODING 174
SWIDTH 468 0
DWIDTH 13 0
BBX 11 11 1 9
BITMAP
1F00
30C0
4E40
4920
C920
9E20
4920
4920
6040
3980
0600
ENDCHAR
STARTCHAR 00AF
ENCODING 175
SWIDTH 252 0
DWIDTH 7 0
BBX 8 2 0 22
BITMAP
FF
FF
ENDCHAR
STARTCHAR 00B0
ENCODING 176
SWIDTH 324 0
DWIDTH 9 0
BBX 7 6 1 14
BITMAP
38
7C
46
C6
44
7C
ENDCHAR
STARTCHAR 00B1
ENCODING 177
SWIDTH 540 0
DWIDTH 15 0
BBX 13 11 1 3
BITMAP
0300
0300
0300
FFF8
FFF8
0300
0300
0300
0000
FFF8
FFF8
ENDCHAR
STARTCHAR 00B4
ENCODING 180
SWIDTH 144 0
DWIDTH 4 0
BBX 4 4 0 21
BITMAP
30
20
60
C0
ENDCHAR
STARTCHAR 00B6
ENCODING 182
SWIDTH 432 0
DWIDTH 12 0
BBX 10 23 1 -3
BITMAP
0640
3E40
7E40
7E40
7E40
FE40
FE40
7E40
7E40
3E40
1E40
0240
0240
0240
0240
0240
0240
0240
0240
0240
0240
0240
0240
ENDCHAR
STARTCHAR 00B7
ENCODING 183
SWIDTH 216 0
DWIDTH 6 0
BBX 4 4 1 5
BITMAP
70
F0
70
60
ENDCHAR
STARTCHAR 00B8
ENCODING 184
SWIDTH 180 0
DWIDTH 5 0
BBX 6 6 0 -6
BITMAP
10
38
0C
04
CC
38
ENDCHAR
STARTCHAR 00BB
ENCODING 187
SWIDTH 504 0
DWIDTH 14 0
BBX 12 13 1 2
BITMAP
E600
6300
3180
19C0
0CC0
0C60
0630
0C60
0CC0
18C0
3180
6300
E600
ENDCHAR
STARTCHAR 00BF
ENCODING 191
SWIDTH 396 0
DWIDTH 11 0
BBX 9 20 1 -3
BITMAP
0E00
1E00
1E00
0C00
0000
0000
0C00
0C00
0C00
0C00
1800
1800
3000
6000
6000
C000
C180
6180
7F00
3E00
ENDCHAR
STARTCHAR 00C0
ENCODING 192
SWIDTH 540 0
DWIDTH 15 0
BBX 14 25 1 0
BITMAP
1800
0C00
0600
0200
0000
0F00
3FC0
70E0
6060
6070
E030
C030
C030
C030
C030
C030
C030
C030
C030
C030
C030
C030
C030
FFFC
FFFC
ENDCHAR
STARTCHAR 00C1
ENCODING 193
SWIDTH 540 0
DWIDTH 15 0
BBX 14 25 1 0
BITMAP
0180
0300
0200
0600
0000
0F00
3FC0
70E0
6060
6070
E030
C030
C030
C030
C030
C030
C030
C030
C030
C030
C030
C030
C030
FFFC
FFFC
ENDCHAR
STARTCHAR 00C2
ENCODING 194
SWIDTH 540 0
DWIDTH 15 0
BBX 14 25 1 0
BITMAP
0600
0F00
1980
30C0
0000
0F00
3FC0
70E0
6060
6070
E030
C030
C030
C030
C030
C030
C030
C030
C030
C030
C030
C030
C030
FFFC
FFFC
ENDCHAR
STARTCHAR 00C3
ENCODING 195
SWIDTH 540 0
DWIDTH 15 0
BBX 14 24 1 0
BITMAP
3F80
0100
0000
0000
0F00
3FC0
70E0
6060
6070
E030
C030
C030
C030
C030
C030
C030
C030
C030
C030
C030
C030
C030
FFFC
FFFC
ENDCHAR
STARTCHAR 00C4
ENCODING 196
SWIDTH 540 0
DWIDTH 15 0
BBX 14 25 1 0
BITMAP
1040
39E0
79E0
38E0
0000
0F00
3FC0
70E0
6060
6070
E030
C030
C030
C030
C030
C030
C030
C030
C030
C030
C030
C030
C030
FFFC
FFFC
ENDCHAR
STARTCHAR 00C5
ENCODING 197
SWIDTH 540 0
DWIDTH 15 0
BBX 14 27 1 0
BITMAP
0200
0F00
1980
1880
0F80
0700
0000
0F00
3FC0
70E0
6060
6070
E030
C030
C030
C030
C030
C030
C030
C030
C030
C030
C030
C030
C030
FFFC
FFFC
ENDCHAR
STARTCHAR 00C7
ENCODING 199
SWIDTH 648 0
DWIDTH 18 0
BBX 17 26 1 -6
BITMAP
01F800
07FE00
1F0780
380180
300080
600000
600000
C00000
C00000
C00000
C00000
C00000
C00000
E00000
600000
700000
380180
1C0380
0FFF00
03FC00
004000
006000
003000
001000
033000
00E000
ENDCHAR
STARTCHAR 00C8
ENCODING 200
SWIDTH 468 0
DWIDTH 13 0
BBX 12 25 1 0
BITMAP
1800
1800
0C00
0400
0000
0000
3F80
3000
3000
3000
3000
3000
3000
3000
FFC0
FFC0
3000
3000
3000
3000
3000
3000
3000
3FF0
3FF0
ENDCHAR
STARTCHAR 00C9
ENCODING 201
SWIDTH 468 0
DWIDTH 13 0
BBX 12 25 1 0
BITMAP
0300
0200
0600
0C00
0000
0000
3F80
3000
3000
3000
3000
3000
3000
3000
FFC0
FFC0
3000
3000
3000
3000
3000
3000
3000
3FF0
3FF0
ENDCHAR
STARTCHAR 00CA
ENCODING 202
SWIDTH 468 0
DWIDTH 13 0
BBX 12 25 1 0
BITMAP
0E00
1B00
3300
3180
0000
0000
3F80
3000
3000
3000
3000
3000
3000
3000
FFC0
FFC0
3000
3000
3000
3000
3000
3000
3000
3FF0
3FF0
ENDCHAR
STARTCHAR 00CB
ENCODING 203
SWIDTH 468 0
DWIDTH 13 0
BBX 12 25 1 0
BITMAP
2080
71C0
79C0
71C0
0000
0000
3F80
3000
3000
3000
3000
3000
3000
3000
FFC0
FFC0
3000
3000
3000
3000
3000
3000
3000
3FF0
3FF0
ENDCHAR
STARTCHAR 00CC
ENCODING 204
SWIDTH 144 0
DWIDTH 4 0
BBX 4 17 0 0
BITMAP
C0
60
20
00
00
70
70
70
70
70
70
70
70
70
70
70
70
ENDCHAR
STARTCHAR 00CD
ENCODING 205
SWIDTH 144 0
DWIDTH 4 0
BBX 4 17 1 0
BITMAP
30
60
40
00
00
E0
E0
E0
E0
E0
E0
E0
E0
E0
E0
E0
E0
ENDCHAR
STARTCHAR 00CE
ENCODING 206
SWIDTH 144 0
DWIDTH 4 0
BBX 7 17 -1 0
BITMAP
38
6C
C6
00
00
38
38
38
38
38
38
38
38
38
38
38
38
ENDCHAR
STARTCHAR 00CF
ENCODING 207
SWIDTH 144 0
DWIDTH 4 0
BBX 9 17 -2 0
BITMAP
E380
F380
E380
6100
0000
1C00
1C00
1C00
1C00
1C00
1C00
1C00
1C00
1C00
1C00
1C00
1C00
ENDCHAR
STARTCHAR 00D1
ENCODING 209
SWIDTH 468 0
DWIDTH 13 0
BBX 13 24 0 0
BITMAP
1FC0
0180
0000
0000
4000
E038
7838
7C38
6E38
67B8
61F8
60F8
6078
6038
6038
6038
6038
6038
6038
6038
6038
6038
6038
6038
ENDCHAR
STARTCHAR 00D2
ENCODING 210
SWIDTH 792 0
DWIDTH 22 0
BBX 21 25 1 0
BITMAP
018000
00C000
006000
002000
000000
01F800
07FF00
1F0780
3801C0
3000E0
600060
600030
C00030
C00038
C00038
C00018
C00038
C00030
E00030
600070
700060
3800E0
1C03C0
0FFF80
03FE00
ENDCHAR
STARTCHAR 00D3
ENCODING 211
SWIDTH 792 0
DWIDTH 22 0
BBX 21 25 1 0
BITMAP
001800
003000
002000
006000
000000
01F800
07FF00
1F0780
3801C0
3000E0
600060
600030
C00030
C00038
C00038
C00018
C00038
C00030
E00030
600070
700060
3800E0
1C03C0
0FFF80
03FE00
ENDCHAR
STARTCHAR 00D4
ENCODING 212
SWIDTH 792 0
DWIDTH 22 0
BBX 21 25 1 0
BITMAP
007000
00F000
019800
010C00
000000
01F800
07FF00
1F0780
3801C0
3000E0
600060
600030
C00030
C00038
C00038
C00018
C00038
C00030
E00030
600070
700060
3800E0
1C03C0
0FFF80
03FE00
ENDCHAR
STARTCHAR 00D5
ENCODING 213
SWIDTH 792 0
DWIDTH 22 0
BBX 21 24 1 0
BITMAP
01F800
001800
000000
000000
01F800
07FF00
1F0780
3801C0
3000E0
600060
600030
C00030
C00038
C00038
C00018
C00038
C00030
E00030
600070
700060
3800E0
1C03C0
0FFF80
03FE00
ENDCHAR
STARTCHAR 00D6
ENCODING 214
SWIDTH 792 0
DWIDTH 22 0
BBX 21 25 1 0
BITMAP
010400
038E00
039E00
038E00
000000
01F800
07FF00
1F0780
3801C0
3000E0
600060
600030
C00030
C00038
C00038
C00018
C00038
C00030
E00030
600070
700060
3800E0
1C03C0
0FFF80
03FE00
ENDCHAR
STARTCHAR 00D7
ENCODING 215
SWIDTH 504 0
DWIDTH 14 0
BBX 10 11 2 4
BITMAP
8040
C0C0
6180
3300
1E00
0C00
1E00
3300
6180
C0C0
8040
ENDCHAR
STARTCHAR 00D8
ENCODING 216
SWIDTH 756 0
DWIDTH 21 0
BBX 20 21 1 -1
BITMAP
01F860
07FEE0
1E07C0
3801C0
7003E0
600660
E00C70
C01830
C03030
C07030
C06030
C0C030
C18030
C30030
E60060
7C00E0
3801C0
3C0380
3FFF00
63FC00
400000
ENDCHAR
STARTCHAR 00D9
ENCODING 217
SWIDTH 468 0
DWIDTH 13 0
BBX 12 25 1 0
BITMAP
1800
0C00
0400
0600
0000
0000
C030
C030
C030
C030
C030
C030
C030
C030
C030
C030
C030
C030
C030
C030
C060
6060
60E0
3FC0
1F80
ENDCHAR
STARTCHAR 00DA
ENCODING 218
SWIDTH 468 0
DWIDTH 13 0
BBX 12 25 1 0
BITMAP
0180
0300
0600
0400
0000
0000
C030
C030
C030
C030
C030
C030
C030
C030
C030
C030
C030
C030
C030
C030
C060
6060
60E0
3FC0
1F80
ENDCHAR
STARTCHAR 00DB
ENCODING 219
SWIDTH 468 0
DWIDTH 13 0
BBX 12 25 1 0
BITMAP
0600
0F00
1980
30C0
0000
0000
C030
C030
C030
C030
C030
C030
C030
C030
C030
C030
C030
C030
C030
C030
C060
6060
60E0
3FC0
1F80
ENDCHAR
STARTCHAR 00DC
ENCODING 220
SWIDTH 468 0
DWIDTH 13 0
BBX 12 25 1 0
BITMAP
10C0
79E0
79E0
39C0
0000
0000
C030
C030
C030
C030
C030
C030
C030
C030
C030
C030
C030
C030
C030
C030
C060
6060
60E0
3FC0
1F80
ENDCHAR
STARTCHAR 00DD
ENCODING 221
SWIDTH 468 0
DWIDTH 13 0
BBX 12 25 1 0
BITMAP
0100
0300
0600
0400
0000
0000
C070
C070
C070
C070
C070
C070
C070
C070
C060
C060
E060
60E0
3FC0
1F80
0600
0600
0600
0600
0600
ENDCHAR
STARTCHAR 00E0
ENCODING 224
SWIDTH 540 0
DWIDTH 15 0
BBX 14 25 1 0
BITMAP
1800
0C00
0600
0200
0000
0F00
3FC0
70E0
6060
6070
E030
C030
C030
C030
C030
C030
C030
C030
C030
C030
C030
C030
C030
FFFC
FFFC
ENDCHAR
STARTCHAR 00E1
ENCODING 225
SWIDTH 540 0
DWIDTH 15 0
BBX 14 25 1 0
BITMAP
0180
0300
0200
0600
0000
0F00
3FC0
70E0
6060
6070
E030
C030
C030
C030
C030
C030
C030
C030
C030
C030
C030
C030
C030
FFFC
FFFC
ENDCHAR
STARTCHAR 00E2
ENCODING 226
SWIDTH 540 0
DWIDTH 15 0
BBX 14 25 1 0
BITMAP
0600
0F00
1980
30C0
0000
0F00
3FC0
70E0
6060
6070
E030
C030
C030
C030
C030
C030
C030
C030
C030
C030
C030
C030
C030
FFFC
FFFC
ENDCHAR
STARTCHAR 00E3
ENCODING 227
SWIDTH 540 0
DWIDTH 15 0
BBX 14 24 1 0
BITMAP
3F80
0100
0000
0000
0F00
3FC0
70E0
6060
6070
E030
C030
C030
C030
C030
C030
C030
C030
C030
C030
C030
C030
C030
FFFC
FFFC
ENDCHAR
STARTCHAR 00E4
ENCODING 228
SWIDTH 540 0
DWIDTH 15 0
BBX 14 25 1 0
BITMAP
1040
39E0
79E0
38E0
0000
0F00
3FC0
70E0
6060
6070
E030
C030
C030
C030
C030
C030
C030
C030
C030
C030
C030
C030
C030
FFFC
FFFC
ENDCHAR
STARTCHAR 00E5
ENCODING 229
SWIDTH 540 0
DWIDTH 15 0
BBX 14 27 1 0
BITMAP
0200
0F00
1980
1880
0F80
0700
0000
0F00
3FC0
70E0
6060
6070
E030
C030
C030
C030
C030
C030
C030
C030
C030
C030
C030
C030
C030
FFFC
FFFC
ENDCHAR
STARTCHAR 00E7
ENCODING 231
SWIDTH 648 0
DWIDTH 18 0
BBX 17 26 1 -6
BITMAP
01F800
07FE00
1F0780
380180
300080
600000
600000
C00000
C00000
C00000
C00000
C00000
C00000
E00000
600000
700000
380180
1C0380
0FFF00
03FC00
004000
006000
003000
001000
033000
00E000
ENDCHAR
STARTCHAR 00E8
ENCODING 232
SWIDTH 468 0
DWIDTH 13 0
BBX 12 25 1 0
BITMAP
1800
1800
0C00
0400
0000
0000
3F80
3000
3000
3000
3000
3000
3000
3000
FFC0
FFC0
3000
3000
3000
3000
3000
3000
3000
3FF0
3FF0
ENDCHAR
STARTCHAR 00E9
ENCODING 233
SWIDTH 468 0
DWIDTH 13 0
BBX 12 25 1 0
BITMAP
0300
0200
0600
0C00
0000
0000
3F80
3000
3000
3000
3000
3000
3000
3000
FFC0
FFC0
3000
3000
3000
3000
3000
3000
3000
3FF0
3FF0
ENDCHAR
STARTCHAR 00EA
ENCODING 234
SWIDTH 468 0
DWIDTH 13 0
BBX 12 25 1 0
BITMAP
0E00
1B00
3300
3180
0000
0000
3F80
3000
3000
3000
3000
3000
3000
3000
FFC0
FFC0
3000
3000
3000
3000
3000
3000
3000
3FF0
3FF0
ENDCHAR
STARTCHAR 00EB
ENCODING 235
SWIDTH 468 0
DWIDTH 13 0
BBX 12 25 1 0
BITMAP
2080
71C0
79C0
71C0
0000
0000
3F80
3000
3000
3000
3000
3000
3000
3000
FFC0
FFC0
3000
3000
3000
3000
3000
3000
3000
3FF0
3FF0
ENDCHAR
STARTCHAR 00EC
ENCODING 236
SWIDTH 144 0
DWIDTH 4 0
BBX 4 17 0 0
BITMAP
C0
60
20
00
00
70
70
70
70
70
70
70
70
70
70
70
70
ENDCHAR
STARTCHAR 00ED
ENCODING 237
SWIDTH 144 0
DWIDTH 4 0
BBX 4 17 1 0
BITMAP
30
60
40
00
00
E0
E0
E0
E0
E0
E0
E0
E0
E0
E0
E0
E0
ENDCHAR
STARTCHAR 00EE
ENCODING 238
SWIDTH 144 0
DWIDTH 4 0
BBX 7 17 -1 0
BITMAP
38
6C
C6
00
00
38
38
38
38
38
38
38
38
38
38
38
38
ENDCHAR
STARTCHAR 00EF
ENCODING 239
SWIDTH 144 0
DWIDTH 4 0
BBX 9 17 -2 0
BITMAP
E380
F380
E380
6100
0000
1C00
1C00
1C00
1C00
1C00
1C00
1C00
1C00
1C00
1C00
1C00
1C00
ENDCHAR
STARTCHAR 00F1
ENCODING 241
SWIDTH 468 0
DWIDTH 13 0
BBX 13 24 0 0
BITMAP
1FC0
0180
0000
0000
4000
E038
7838
7C38
6E38
67B8
61F8
60F8
6078
6038
6038
6038
6038
6038
6038
6038
6038
6038
6038
6038
ENDCHAR
STARTCHAR 00F2
ENCODING 242
SWIDTH 792 0
DWIDTH 22 0
BBX 21 25 1 0
BITMAP
018000
00C000
006000
002000
000000
01F800
07FF00
1F0780
3801C0
3000E0
600060
600030
C00030
C00038
C00038
C00018
C00038
C00030
E00030
600070
700060
3800E0
1C03C0
0FFF80
03FE00
ENDCHAR
STARTCHAR 00F3
ENCODING 243
SWIDTH 792 0
DWIDTH 22 0
BBX 21 25 1 0
BITMAP
001800
003000
002000
006000
000000
01F800
07FF00
1F0780
3801C0
3000E0
600060
600030
C00030
C00038
C00038
C00018
C00038
C00030
E00030
600070
700060
3800E0
1C03C0
0FFF80
03FE00
ENDCHAR
STARTCHAR 00F4
ENCODING 244
SWIDTH 792 0
DWIDTH 22 0
BBX 21 25 1 0
BITMAP
007000
00F000
019800
010C00
000000
01F800
07FF00
1F0780
3801C0
3000E0
600060
600030
C00030
C00038
C00038
C00018
C00038
C00030
E00030
600070
700060
3800E0
1C03C0
0FFF80
03FE00
ENDCHAR
STARTCHAR 00F5
ENCODING 245
SWIDTH 792 0
DWIDTH 22 0
BBX 21 24 1 0
BITMAP
01F800
001800
000000
000000
01F800
07FF00
1F0780
3801C0
3000E0
600060
600030
C00030
C00038
C00038
C00018
C00038
C00030
E00030
600070
700060
3800E0
1C03C0
0FFF80
03FE00
ENDCHAR
STARTCHAR 00F6
ENCODING 246
SWIDTH 792 0
DWIDTH 22 0
BBX 21 25 1 0
BITMAP
010400
038E00
039E00
038E00
000000
01F800
07FF00
1F0780
3801C0
3000E0
600060
600030
C00030
C00038
C00038
C00018
C00038
C00030
E00030
600070
700060
3800E0
1C03C0
0FFF80
03FE00
ENDCHAR
STARTCHAR 00F7
ENCODING 247
SWIDTH 540 0
DWIDTH 15 0
BBX 13 12 1 3
BITMAP
0200
0700
0700
0200
0000
FFF8
FFF8
0000
0000
0700
0700
0700
ENDCHAR
STARTCHAR 00F8
ENCODING 248
SWIDTH 756 0
DWIDTH 21 0
BBX 20 21 1 -1
BITMAP
01F860
07FEE0
1E07C0
3801C0
7003E0
600660
E00C70
C01830
C03030
C07030
C06030
C0C030
C18030
C30030
E60060
7C00E0
3801C0
3C0380
3FFF00
63FC00
400000
ENDCHAR
STARTCHAR 00F9
ENCODING 249
SWIDTH 468 0
DWIDTH 13 0
BBX 12 25 1 0
BITMAP
1800
0C00
0400
0600
0000
0000
C030
C030
C030
C030
C030
C030
C030
C030
C030
C030
C030
C030
C030
C030
C060
6060
60E0
3FC0
1F80
ENDCHAR
STARTCHAR 00FA
ENCODING 250
SWIDTH 468 0
DWIDTH 13 0
BBX 12 25 1 0
BITMAP
0180
0300
0600
0400
0000
0000
C030
C030
C030
C030
C030
C030
C030
C030
C030
C030
C030
C030
C030
C030
C060
6060
60E0
3FC0
1F80
ENDCHAR
STARTCHAR 00FB
ENCODING 251
SWIDTH 468 0
DWIDTH 13 0
BBX 12 25 1 0
BITMAP
0600
0F00
1980
30C0
0000
0000
C030
C030
C030
C030
C030
C030
C030
C030
C030
C030
C030
C030
C030
C030
C060
6060
60E0
3FC0
1F80
ENDCHAR
STARTCHAR 00FC
ENCODING 252
SWIDTH 468 0
DWIDTH 13 0
BBX 12 25 1 0
BITMAP
10C0
79E0
79E0
39C0
0000
0000
C030
C030
C030
C030
C030
C030
C030
C030
C030
C030
C030
C030
C030
C030
C060
6060
60E0
3FC0
1F80
ENDCHAR
STARTCHAR 00FD
ENCODING 253
SWIDTH 468 0
DWIDTH 13 0
BBX 12 25 1 0
BITMAP
0100
0300
0600
0400
0000
0000
C070
C070
C070
C070
C070
C070
C070
C070
C060
C060
E060
60E0
3FC0
1F80
0600
0600
0600
0600
0600
ENDCHAR
STARTCHAR 00FF
ENCODING 255
SWIDTH 468 0
DWIDTH 13 0
BBX 12 25 1 0
BITMAP
3080
79E0
79E0
71C0
0000
0000
C070
C070
C070
C070
C070
C070
C070
C070
C060
C060
E060
60E0
3FC0
1F80
0600
0600
0600
0600
0600
ENDCHAR
STARTCHAR 0100
ENCODING 256
SWIDTH 540 0
DWIDTH 15 0
BBX 14 24 1 0
BITMAP
3FC0
3FC0
0000
0000
0F00
3FC0
70E0
6060
6070
E030
C030
C030
C030
C030
C030
C030
C030
C030
C030
C030
C030
C030
FFFC
FFFC
ENDCHAR
STARTCHAR 0101
ENCODING 257
SWIDTH 540 0
DWIDTH 15 0
BBX 14 24 1 0
BITMAP
3FC0
3FC0
0000
0000
0F00
3FC0
70E0
6060
6070
E030
C030
C030
C030
C030
C030
C030
C030
C030
C030
C030
C030
C030
FFFC
FFFC
ENDCHAR
STARTCHAR 0102
ENCODING 258
SWIDTH 540 0
DWIDTH 15 0
BBX 14 25 1 0
BITMAP
30C0
10C0
1F80
0F00
0000
0F00
3FC0
70E0
6060
6070
E030
C030
C030
C030
C030
C030
C030
C030
C030
C030
C030
C030
C030
FFFC
FFFC
ENDCHAR
STARTCHAR 0103
ENCODING 259
SWIDTH 540 0
DWIDTH 15 0
BBX 14 25 1 0
BITMAP
30C0
10C0
1F80
0F00
0000
0F00
3FC0
70E0
6060
6070
E030
C030
C030
C030
C030
C030
C030
C030
C030
C030
C030
C030
C030
FFFC
FFFC
ENDCHAR
STARTCHAR 0104
ENCODING 260
SWIDTH 540 0
DWIDTH 15 0
BBX 15 25 1 -5
BITMAP
0F00
3FC0
70E0
6060
6070
E030
C030
C030
C030
C030
C030
C030
C030
C030
C030
C030
C030
C030
FFFC
FFFC
0010
0020
0020
0036
001C
ENDCHAR
STARTCHAR 0105
ENCODING 261
SWIDTH 540 0
DWIDTH 15 0
BBX 15 25 1 -5
BITMAP
0F00
3FC0
70E0
6060
6070
E030
C030
C030
C030
C030
C030
C030
C030
C030
C030
C030
C030
C030
FFFC
FFFC
0010
0020
0020
0036
001C
ENDCHAR
STARTCHAR 0106
ENCODING 262
SWIDTH 648 0
DWIDTH 18 0
BBX 17 25 1 0
BITMAP
001800
003000
002000
006000
000000
01F800
07FE00
1F0780
380180
300080
600000
600000
C00000
C00000
C00000
C00000
C00000
C00000
E00000
600000
700000
380180
1C0380
0FFF00
03FC00
ENDCHAR
STARTCHAR 0107
ENCODING 263
SWIDTH 648 0
DWIDTH 18 0
BBX 17 25 1 0
BITMAP
001800
003000
002000
006000
000000
01F800
07FE00
1F0780
380180
300080
600000
600000
C00000
C00000
C00000
C00000
C00000
C00000
E00000
600000
700000
380180
1C0380
0FFF00
03FC00
ENDCHAR
STARTCHAR 010A
ENCODING 266
SWIDTH 648 0
DWIDTH 18 0
BBX 17 25 1 0
BITMAP
007000
00F000
007000
000000
000000
01F800
07FE00
1F0780
380180
300080
600000
600000
C00000
C00000
C00000
C00000
C00000
C00000
E00000
600000
700000
380180
1C0380
0FFF00
03FC00
ENDCHAR
STARTCHAR 010B
ENCODING 267
SWIDTH 648 0
DWIDTH 18 0
BBX 17 25 1 0
BITMAP
007000
00F000
007000
000000
000000
01F800
07FE00
1F0780
380180
300080
600000
600000
C00000
C00000
C00000
C00000
C00000
C00000
E00000
600000
700000
380180
1C0380
0FFF00
03FC00
ENDCHAR
STARTCHAR 010C
ENCODING 268
SWIDTH 648 0
DWIDTH 18 0
BBX 17 25 1 0
BITMAP
010C00
019800
00F000
006000
000000
01F800
07FE00
1F0780
380180
300080
600000
600000
C00000
C00000
C00000
C00000
C00000
C00000
E00000
600000
700000
380180
1C0380
0FFF00
03FC00
ENDCHAR
STARTCHAR 010D
ENCODING 269
SWIDTH 648 0
DWIDTH 18 0
BBX 17 25 1 0
BITMAP
010C00
019800
00F000
006000
000000
01F800
07FE00
1F0780
380180
300080
600000
600000
C00000
C00000
C00000
C00000
C00000
C00000
E00000
600000
700000
380180
1C0380
0FFF00
03FC00
ENDCHAR
STARTCHAR 010E
ENCODING 270
SWIDTH 612 0
DWIDTH 17 0
BBX 16 25 1 0
BITMAP
18C0
0D80
0F00
0700
0000
0000
FFC0
E7F0
E038
E01C
E00E
E006
E006
E007
E003
E003
E003
E007
E006
E006
E00C
E01C
E078
FFE0
FF80
ENDCHAR
STARTCHAR 010F
ENCODING 271
SWIDTH 612 0
DWIDTH 17 0
BBX 16 25 1 0
BITMAP
18C0
0D80
0F00
0700
0000
0000
FFC0
E7F0
E038
E01C
E00E
E006
E006
E007
E003
E003
E003
E007
E006
E006
E00C
E01C
E078
FFE0
FF80
ENDCHAR
STARTCHAR 0110
ENCODING 272
SWIDTH 648 0
DWIDTH 18 0
BBX 17 19 1 0
BITMAP
3FE000
31F800
301C00
300E00
300700
300300
300380
300180
FF8180
FF8180
300180
300180
300300
300300
300700
300E00
303C00
3FF800
3FC000
ENDCHAR
STARTCHAR 0111
ENCODING 273
SWIDTH 648 0
DWIDTH 18 0
BBX 17 19 1 0
BITMAP
3FE000
31F800
301C00
300E00
300700
300300
300380
300180
FF8180
FF8180
300180
300180
300300
300300
300700
300E00
303C00
3FF800
3FC000
ENDCHAR
STARTCHAR 0112
ENCODING 274
SWIDTH 468 0
DWIDTH 13 0
BBX 12 24 1 0
BITMAP
3F80
3F80
0000
0000
0000
3F80
3000
3000
3000
3000
3000
3000
3000
FFC0
FFC0
3000
3000
3000
3000
3000
3000
3000
3FF0
3FF0
ENDCHAR
STARTCHAR 0113
ENCODING 275
SWIDTH 468 0
DWIDTH 13 0
BBX 12 24 1 0
BITMAP
3F80
3F80
0000
0000
0000
3F80
3000
3000
3000
3000
3000
3000
3000
FFC0
FFC0
3000
3000
3000
3000
3000
3000
3000
3FF0
3FF0
ENDCHAR
STARTCHAR 0116
ENCODING 278
SWIDTH 468 0
DWIDTH 13 0
BBX 12 25 1 0
BITMAP
0E00
0F00
0E00
0000
0000
0000
3F80
3000
3000
3000
3000
3000
3000
3000
FFC0
FFC0
3000
3000
3000
3000
3000
3000
3000
3FF0
3FF0
ENDCHAR
STARTCHAR 0117
ENCODING 279
SWIDTH 468 0
DWIDTH 13 0
BBX 12 25 1 0
BITMAP
0E00
0F00
0E00
0000
0000
0000
3F80
3000
3000
3000
3000
3000
3000
3000
FFC0
FFC0
3000
3000
3000
3000
3000
3000
3000
3FF0
3FF0
ENDCHAR
STARTCHAR 0118
ENCODING 280
SWIDTH 468 0
DWIDTH 13 0
BBX 13 24 1 -5
BITMAP
3F80
3000
3000
3000
3000
3000
3000
3000
FFC0
FFC0
3000
3000
3000
3000
3000
3000
3000
3FF0
3FF0
0060
0040
00C0
0048
0078
ENDCHAR
STARTCHAR 0119
ENCODING 281
SWIDTH 468 0
DWIDTH 13 0
BBX 13 24 1 -5
BITMAP
3F80
3000
3000
3000
3000
3000
3000
3000
FFC0
FFC0
3000
3000
3000
3000
3000
3000
3000
3FF0
3FF0
0060
0040
00C0
0048
0078
ENDCHAR
STARTCHAR 011A
ENCODING 282
SWIDTH 468 0
DWIDTH 13 0
BBX 12 25 1 0
BITMAP
3180
1B00
1E00
0E00
0000
0000
3F80
3000
3000
3000
3000
3000
3000
3000
FFC0
FFC0
3000
3000
3000
3000
3000
3000
3000
3FF0
3FF0
ENDCHAR
STARTCHAR 011B
ENCODING 283
SWIDTH 468 0
DWIDTH 13 0
BBX 12 25 1 0
BITMAP
3180
1B00
1E00
0E00
0000
0000
3F80
3000
3000
3000
3000
3000
3000
3000
FFC0
FFC0
3000
3000
3000
3000
3000
3000
3000
3FF0
3FF0
ENDCHAR
STARTCHAR 011E
ENCODING 286
SWIDTH 828 0
DWIDTH 23 0
BBX 22 25 1 0
BITMAP
030C00
010C00
01F800
00F000
000000
01F800
07FE00
1F0780
3801C0
300080
600000
600000
C00000
C00000
C07FFC
C07FFC
C00030
C00030
E00030
600060
7000E0
3801C0
1C0380
0FFF00
03FE00
ENDCHAR
STARTCHAR 011F
ENCODING 287
SWIDTH 828 0
DWIDTH 23 0
BBX 22 25 1 0
BITMAP
030C00
010C00
01F800
00F000
000000
01F800
07FE00
1F0780
3801C0
300080
600000
600000
C00000
C00000
C07FFC
C07FFC
C00030
C00030
E00030
600060
7000E0
3801C0
1C0380
0FFF00
03FE00
ENDCHAR
STARTCHAR 0120
ENCODING 288
SWIDTH 828 0
DWIDTH 23 0
BBX 22 25 1 0
BITMAP
007000
00F000
007000
000000
000000
01F800
07FE00
1F0780
3801C0
300080
600000
600000
C00000
C00000
C07FFC
C07FFC
C00030
C00030
E00030
600060
7000E0
3801C0
1C0380
0FFF00
03FE00
ENDCHAR
STARTCHAR 0121
ENCODING 289
SWIDTH 828 0
DWIDTH 23 0
BBX 22 25 1 0
BITMAP
007000
00F000
007000
000000
000000
01F800
07FE00
1F0780
3801C0
300080
600000
600000
C00000
C00000
C07FFC
C07FFC
C00030
C00030
E00030
600060
7000E0
3801C0
1C0380
0FFF00
03FE00
ENDCHAR
STARTCHAR 0124
ENCODING 292
SWIDTH 540 0
DWIDTH 15 0
BBX 13 25 1 0
BITMAP
0380
0780
0CC0
1860
0000
0000
3018
3018
3018
3018
3018
3018
3018
FFF8
FFF8
3018
3018
3018
3018
3018
3018
3018
3018
3018
3018
ENDCHAR
STARTCHAR 0125
ENCODING 293
SWIDTH 540 0
DWIDTH 15 0
BBX 13 25 1 0
BITMAP
0380
0780
0CC0
1860
0000
0000
3018
3018
3018
3018
3018
3018
3018
FFF8
FFF8
3018
3018
3018
3018
3018
3018
3018
3018
3018
3018
ENDCHAR
STARTCHAR 0128
ENCODING 296
SWIDTH 144 0
DWIDTH 4 0
BBX 6 17 -1 0
BITMAP
E0
FC
00
00
00
38
38
38
38
38
38
38
38
38
38
38
38
ENDCHAR
STARTCHAR 0129
ENCODING 297
SWIDTH 144 0
DWIDTH 4 0
BBX 6 17 -1 0
BITMAP
E0
FC
00
00
00
38
38
38
38
38
38
38
38
38
38
38
38
ENDCHAR
STARTCHAR 012A
ENCODING 298
SWIDTH 144 0
DWIDTH 4 0
BBX 7 16 -1 0
BITMAP
FE
00
00
00
38
38
38
38
38
38
38
38
38
38
38
38
ENDCHAR
STARTCHAR 012B
ENCODING 299
SWIDTH 144 0
DWIDTH 4 0
BBX 7 16 -1 0
BITMAP
FE
00
00
00
38
38
38
38
38
38
38
38
38
38
38
38
ENDCHAR
STARTCHAR 012E
ENCODING 302
SWIDTH 144 0
DWIDTH 4 0
BBX 6 26 -1 -4
BITMAP
10
10
7C
38
28
00
00
00
00
30
30
30
30
30
30
30
30
30
30
30
30
60
40
C0
48
70
ENDCHAR
STARTCHAR 012F
ENCODING 303
SWIDTH 144 0
DWIDTH 4 0
BBX 6 26 -1 -4
BITMAP
10
10
7C
38
28
00
00
00
00
30
30
30
30
30
30
30
30
30
30
30
30
60
40
C0
48
70
ENDCHAR
STARTCHAR 0130
ENCODING 304
SWIDTH 144 0
DWIDTH 4 0
BBX 4 18 1 0
BITMAP
60
E0
F0
E0
00
00
E0
E0
E0
E0
E0
E0
E0
E0
E0
E0
E0
E0
ENDCHAR
STARTCHAR 0139
ENCODING 313
SWIDTH 396 0
DWIDTH 11 0
BBX 10 25 1 0
BITMAP
3000
2000
6000
C000
0000
0000
E000
E000
E000
E000
E000
E000
E000
E000
E000
E000
E000
E000
E000
E000
E000
E000
E000
FFC0
FFC0
ENDCHAR
STARTCHAR 013A
ENCODING 314
SWIDTH 396 0
DWIDTH 11 0
BBX 10 25 1 0
BITMAP
3000
2000
6000
C000
0000
0000
E000
E000
E000
E000
E000
E000
E000
E000
E000
E000
E000
E000
E000
E000
E000
E000
E000
FFC0
FFC0
ENDCHAR
STARTCHAR 013D
ENCODING 317
SWIDTH 396 0
DWIDTH 11 0
BBX 12 25 -1 0
BITMAP
C600
6C00
7800
3800
0000
0000
3800
3800
3800
3800
3800
3800
3800
3800
3800
3800
3800
3800
3800
3800
3800
3800
3800
3FF0
3FF0
ENDCHAR
STARTCHAR 013E
ENCODING 318
SWIDTH 396 0
DWIDTH 11 0
BBX 12 25 -1 0
BITMAP
C600
6C00
7800
3800
0000
0000
3800
3800
3800
3800
3800
3800
3800
3800
3800
3800
3800
3800
3800
3800
3800
3800
3800
3FF0
3FF0
ENDCHAR
STARTCHAR 0141
ENCODING 321
SWIDTH 468 0
DWIDTH 13 0
BBX 13 19 0 0
BITMAP
1800
1800
1800
1800
1800
1800
1800
1B00
1E00
3800
F800
1800
1800
1800
1800
1800
1800
1FF8
1FF8
ENDCHAR
STARTCHAR 0142
ENCODING 322
SWIDTH 468 0
DWIDTH 13 0
BBX 13 19 0 0
BITMAP
1800
1800
1800
1800
1800
1800
1800
1B00
1E00
3800
F800
1800
1800
1800
1800
1800
1800
1FF8
1FF8
ENDCHAR
STARTCHAR 0143
ENCODING 323
SWIDTH 468 0
DWIDTH 13 0
BBX 13 25 0 0
BITMAP
00C0
0180
0300
0200
0000
4000
E038
7838
7C38
6E38
67B8
61F8
60F8
6078
6038
6038
6038
6038
6038
6038
6038
6038
6038
6038
6038
ENDCHAR
STARTCHAR 0144
ENCODING 324
SWIDTH 468 0
DWIDTH 13 0
BBX 13 25 0 0
BITMAP
00C0
0180
0300
0200
0000
4000
E038
7838
7C38
6E38
67B8
61F8
60F8
6078
6038
6038
6038
6038
6038
6038
6038
6038
6038
6038
6038
ENDCHAR
STARTCHAR 0147
ENCODING 327
SWIDTH 468 0
DWIDTH 13 0
BBX 13 25 0 0
BITMAP
1860
0CC0
0780
0300
0000
4000
E038
7838
7C38
6E38
67B8
61F8
60F8
6078
6038
6038
6038
6038
6038
6038
6038
6038
6038
6038
6038
ENDCHAR
STARTCHAR 0148
ENCODING 328
SWIDTH 468 0
DWIDTH 13 0
BBX 13 25 0 0
BITMAP
1860
0CC0
0780
0300
0000
4000
E038
7838
7C38
6E38
67B8
61F8
60F8
6078
6038
6038
6038
6038
6038
6038
6038
6038
6038
6038
6038
ENDCHAR
STARTCHAR 014C
ENCODING 332
SWIDTH 792 0
DWIDTH 22 0
BBX 21 24 1 0
BITMAP
03FC00
03FC00
000000
000000
01F800
07FF00
1F0780
3801C0
3000E0
600060
600030
C00030
C00038
C00038
C00018
C00038
C00030
E00030
600070
700060
3800E0
1C03C0
0FFF80
03FE00
ENDCHAR
STARTCHAR 014D
ENCODING 333
SWIDTH 792 0
DWIDTH 22 0
BBX 21 24 1 0
BITMAP
03FC00
03FC00
000000
000000
01F800
07FF00
1F0780
3801C0
3000E0
600060
600030
C00030
C00038
C00038
C00018
C00038
C00030
E00030
600070
700060
3800E0
1C03C0
0FFF80
03FE00
ENDCHAR
STARTCHAR 0150
ENCODING 336
SWIDTH 792 0
DWIDTH 22 0
BBX 21 25 1 0
BITMAP
006300
00C600
008C00
018800
000000
01F800
07FF00
1F0780
3801C0
3000E0
600060
600030
C00030
C00038
C00038
C00018
C00038
C00030
E00030
600070
700060
3800E0
1C03C0
0FFF80
03FE00
ENDCHAR
STARTCHAR 0151
ENCODING 337
SWIDTH 792 0
DWIDTH 22 0
BBX 21 25 1 0
BITMAP
006300
00C600
008C00
018800
000000
01F800
07FF00
1F0780
3801C0
3000E0
600060
600030
C00030
C00038
C00038
C00018
C00038
C00030
E00030
600070
700060
3800E0
1C03C0
0FFF80
03FE00
ENDCHAR
STARTCHAR 0154
ENCODING 340
SWIDTH 540 0
DWIDTH 15 0
BBX 14 25 1 0
BITMAP
0180
0180
0300
0200
0000
0000
3FE0
31F8
3018
301C
300C
300C
300C
301C
3038
FFF0
FFE0
30F0
3030
3038
3018
3018
3018
3018
3018
ENDCHAR
STARTCHAR 0155
ENCODING 341
SWIDTH 540 0
DWIDTH 15 0
BBX 14 25 1 0
BITMAP
0180
0180
0300
0200
0000
0000
3FE0
31F8
3018
301C
300C
300C
300C
301C
3038
FFF0
FFE0
30F0
3030
3038
3018
3018
3018
3018
3018
ENDCHAR
STARTCHAR 0158
ENCODING 344
SWIDTH 540 0
DWIDTH 15 0
BBX 14 25 1 0
BITMAP
18C0
0CC0
0780
0300
0000
0000
3FE0
31F8
3018
301C
300C
300C
300C
301C
3038
FFF0
FFE0
30F0
3030
3038
3018
3018
3018
3018
3018
ENDCHAR
STARTCHAR 0159
ENCODING 345
SWIDTH 540 0
DWIDTH 15 0
BBX 14 25 1 0
BITMAP
18C0
0CC0
0780
0300
0000
0000
3FE0
31F8
3018
301C
300C
300C
300C
301C
3038
FFF0
FFE0
30F0
3030
3038
3018
3018
3018
3018
3018
ENDCHAR
STARTCHAR 015A
ENCODING 346
SWIDTH 468 0
DWIDTH 13 0
BBX 12 25 1 0
BITMAP
0300
0300
0600
0400
0000
0F00
3FC0
71C0
60E0
6060
6000
6000
3000
1C00
0F00
0380
01C0
00E0
0060
0030
C030
C060
6060
7FE0
3F80
ENDCHAR
STARTCHAR 015B
ENCODING 347
SWIDTH 468 0
DWIDTH 13 0
BBX 12 25 1 0
BITMAP
0300
0300
0600
0400
0000
0F00
3FC0
71C0
60E0
6060
6000
6000
3000
1C00
0F00
0380
01C0
00E0
0060
0030
C030
C060
6060
7FE0
3F80
ENDCHAR
STARTCHAR 015E
ENCODING 350
SWIDTH 468 0
DWIDTH 13 0
BBX 12 26 1 -6
BITMAP
0F00
3FC0
71C0
60E0
6060
6000
6000
3000
1C00
0F00
0380
01C0
00E0
0060
0030
C030
C060
6060
7FE0
3F80
0400
0600
0100
1100
1B00
0E00
ENDCHAR
STARTCHAR 015F
ENCODING 351
SWIDTH 468 0
DWIDTH 13 0
BBX 12 26 1 -6
BITMAP
0F00
3FC0
71C0
60E0
6060
6000
6000
3000
1C00
0F00
0380
01C0
00E0
0060
0030
C030
C060
6060
7FE0
3F80
0400
0600
0100
1100
1B00
0E00
ENDCHAR
STARTCHAR 0160
ENCODING 352
SWIDTH 468 0
DWIDTH 13 0
BBX 12 25 1 0
BITMAP
3180
1900
0F00
0E00
0000
0F00
3FC0
71C0
60E0
6060
6000
6000
3000
1C00
0F00
0380
01C0
00E0
0060
0030
C030
C060
6060
7FE0
3F80
ENDCHAR
STARTCHAR 0161
ENCODING 353
SWIDTH 468 0
DWIDTH 13 0
BBX 12 25 1 0
BITMAP
3180
1900
0F00
0E00
0000
0F00
3FC0
71C0
60E0
6060
6000
6000
3000
1C00
0F00
0380
01C0
00E0
0060
0030
C030
C060
6060
7FE0
3F80
ENDCHAR
STARTCHAR 0162
ENCODING 354
SWIDTH 468 0
DWIDTH 13 0
BBX 12 25 1 -6
BITMAP
FFF0
0600
0600
0600
0600
0600
0600
0600
0600
0600
0600
0600
0600
0600
0600
0600
0600
0600
0600
0400
0600
0100
0100
1B00
0E00
ENDCHAR
STARTCHAR 0163
ENCODING 355
SWIDTH 468 0
DWIDTH 13 0
BBX 12 25 1 -6
BITMAP
FFF0
0600
0600
0600
0600
0600
0600
0600
0600
0600
0600
0600
0600
0600
0600
0600
0600
0600
0600
0400
0600
0100
0100
1B00
0E00
ENDCHAR
STARTCHAR 0164
ENCODING 356
SWIDTH 468 0
DWIDTH 13 0
BBX 12 25 1 0
BITMAP
3080
1980
0F00
0600
0000
0000
FFF0
0600
0600
0600
0600
0600
0600
0600
0600
0600
0600
0600
0600
0600
0600
0600
0600
0600
0600
ENDCHAR
STARTCHAR 0165
ENCODING 357
SWIDTH 468 0
DWIDTH 13 0
BBX 12 25 1 0
BITMAP
3080
1980
0F00
0600
0000
0000
FFF0
0600
0600
0600
0600
0600
0600
0600
0600
0600
0600
0600
0600
0600
0600
0600
0600
0600
0600
ENDCHAR
STARTCHAR 0168
ENCODING 360
SWIDTH 468 0
DWIDTH 13 0
BBX 12 24 1 0
BITMAP
3F80
0300
0000
0000
0000
C030
C030
C030
C030
C030
C030
C030
C030
C030
C030
C030
C030
C030
C030
C060
6060
60E0
3FC0
1F80
ENDCHAR
STARTCHAR 0169
ENCODING 361
SWIDTH 468 0
DWIDTH 13 0
BBX 12 24 1 0
BITMAP
3F80
0300
0000
0000
0000
C030
C030
C030
C030
C030
C030
C030
C030
C030
C030
C030
C030
C030
C030
C060
6060
60E0
3FC0
1F80
ENDCHAR
STARTCHAR 016A
ENCODING 362
SWIDTH 468 0
DWIDTH 13 0
BBX 12 24 1 0
BITMAP
3FC0
3FC0
0000
0000
0000
C030
C030
C030
C030
C030
C030
C030
C030
C030
C030
C030
C030
C030
C030
C060
6060
60E0
3FC0
1F80
ENDCHAR
STARTCHAR 016B
ENCODING 363
SWIDTH 468 0
DWIDTH 13 0
BBX 12 24 1 0
BITMAP
3FC0
3FC0
0000
0000
0000
C030
C030
C030
C030
C030
C030
C030
C030
C030
C030
C030
C030
C030
C030
C060
6060
60E0
3FC0
1F80
ENDCHAR
STARTCHAR 016E
ENCODING 366
SWIDTH 468 0
DWIDTH 13 0
BBX 12 27 1 0
BITMAP
0400
0F00
1180
1180
1B00
0E00
0000
0000
C030
C030
C030
C030
C030
C030
C030
C030
C030
C030
C030
C030
C030
C030
C060
6060
60E0
3FC0
1F80
ENDCHAR
STARTCHAR 016F
ENCODING 367
SWIDTH 468 0
DWIDTH 13 0
BBX 12 27 1 0
BITMAP
0400
0F00
1180
1180
1B00
0E00
0000
0000
C030
C030
C030
C030
C030
C030
C030
C030
C030
C030
C030
C030
C030
C030
C060
6060
60E0
3FC0
1F80
ENDCHAR
STARTCHAR 0170
ENCODING 368
SWIDTH 468 0
DWIDTH 13 0
BBX 12 25 1 0
BITMAP
0660
0C40
18C0
1180
0000
0000
C030
C030
C030
C030
C030
C030
C030
C030
C030
C030
C030
C030
C030
C030
C060
6060
60E0
3FC0
1F80
ENDCHAR
STARTCHAR 0171
ENCODING 369
SWIDTH 468 0
DWIDTH 13 0
BBX 12 25 1 0
BITMAP
0660
0C40
18C0
1180
0000
0000
C030
C030
C030
C030
C030
C030
C030
C030
C030
C030
C030
C030
C030
C030
C060
6060
60E0
3FC0
1F80
ENDCHAR
STARTCHAR 0172
ENCODING 370
SWIDTH 468 0
DWIDTH 13 0
BBX 12 24 1 -5
BITMAP
C030
C030
C030
C030
C030
C030
C030
C030
C030
C030
C030
C030
C030
C030
C060
6060
60E0
3FC0
1F80
0400
0800
0800
0900
0F00
ENDCHAR
STARTCHAR 0173
ENCODING 371
SWIDTH 468 0
DWIDTH 13 0
BBX 12 24 1 -5
BITMAP
C030
C030
C030
C030
C030
C030
C030
C030
C030
C030
C030
C030
C030
C030
C060
6060
60E0
3FC0
1F80
0400
0800
0800
0900
0F00
ENDCHAR
STARTCHAR 0176
ENCODING 374
SWIDTH 468 0
DWIDTH 13 0
BBX 12 25 1 0
BITMAP
0E00
0F00
1980
30C0
0000
0000
C070
C070
C070
C070
C070
C070
C070
C070
C060
C060
E060
60E0
3FC0
1F80
0600
0600
0600
0600
0600
ENDCHAR
STARTCHAR 0177
ENCODING 375
SWIDTH 468 0
DWIDTH 13 0
BBX 12 25 1 0
BITMAP
0E00
0F00
1980
30C0
0000
0000
C070
C070
C070
C070
C070
C070
C070
C070
C060
C060
E060
60E0
3FC0
1F80
0600
0600
0600
0600
0600
ENDCHAR
STARTCHAR 0178
ENCODING 376
SWIDTH 468 0
DWIDTH 13 0
BBX 12 25 1 0
BITMAP
3080
79E0
79E0
71C0
0000
0000
C070
C070
C070
C070
C070
C070
C070
C070
C060
C060
E060
60E0
3FC0
1F80
0600
0600
0600
0600
0600
ENDCHAR
STARTCHAR 0179
ENCODING 377
SWIDTH 468 0
DWIDTH 13 0
BBX 12 25 1 0
BITMAP
0180
0300
0600
0400
0000
0000
FFF0
0070
0060
00C0
01C0
0180
0380
0300
0600
0E00
0C00
1C00
1800
3000
7000
6000
E000
FFF0
FFF0
ENDCHAR
STARTCHAR 017A
ENCODING 378
SWIDTH 468 0
DWIDTH 13 0
BBX 12 25 1 0
BITMAP
0180
0300
0600
0400
0000
0000
FFF0
0070
0060
00C0
01C0
0180
0380
0300
0600
0E00
0C00
1C00
1800
3000
7000
6000
E000
FFF0
FFF0
ENDCHAR
STARTCHAR 017B
ENCODING 379
SWIDTH 468 0
DWIDTH 13 0
BBX 12 25 1 0
BITMAP
0F00
0F00
0F00
0000
0000
0000
FFF0
0070
0060
00C0
01C0
0180
0380
0300
0600
0E00
0C00
1C00
1800
3000
7000
6000
E000
FFF0
FFF0
ENDCHAR
STARTCHAR 017C
ENCODING 380
SWIDTH 468 0
DWIDTH 13 0
BBX 12 25 1 0
BITMAP
0F00
0F00
0F00
0000
0000
0000
FFF0
0070
0060
00C0
01C0
0180
0380
0300
0600
0E00
0C00
1C00
1800
3000
7000
6000
E000
FFF0
FFF0
ENDCHAR
STARTCHAR 017D
ENCODING 381
SWIDTH 468 0
DWIDTH 13 0
BBX 12 25 1 0
BITMAP
30C0
1980
0F00
0600
0000
0000
FFF0
0070
0060
00C0
01C0
0180
0380
0300
0600
0E00
0C00
1C00
1800
3000
7000
6000
E000
FFF0
FFF0
ENDCHAR
STARTCHAR 017E
ENCODING 382
SWIDTH 468 0
DWIDTH 13 0
BBX 12 25 1 0
BITMAP
30C0
1980
0F00
0600
0000
0000
FFF0
0070
0060
00C0
01C0
0180
0380
0300
0600
0E00
0C00
1C00
1800
3000
7000
6000
E000
FFF0
FFF0
ENDCHAR
STARTCHAR 01A0
ENCODING 416
SWIDTH 792 0
DWIDTH 22 0
BBX 21 22 1 0
BITMAP
0000C0
0000C0
01F980
07FF00
1F0780
3801C0
3000E0
600060
600030
C00030
C00038
C00038
C00018
C00038
C00030
E00030
600070
700060
3800E0
1C03C0
0FFF80
03FE00
ENDCHAR
STARTCHAR 01A1
ENCODING 417
SWIDTH 792 0
DWIDTH 22 0
BBX 21 22 1 0
BITMAP
0000C0
0000C0
01F980
07FF00
1F0780
3801C0
3000E0
600060
600030
C00030
C00038
C00038
C00018
C00038
C00030
E00030
600070
700060
3800E0
1C03C0
0FFF80
03FE00
ENDCHAR
STARTCHAR 01AF
ENCODING 431
SWIDTH 468 0
DWIDTH 13 0
BBX 14 22 1 0
BITMAP
000C
0008
0018
C030
C030
C030
C030
C030
C030
C030
C030
C030
C030
C030
C030
C030
C030
C060
6060
60E0
3FC0
1F80
ENDCHAR
STARTCHAR 01B0
ENCODING 432
SWIDTH 468 0
DWIDTH 13 0
BBX 14 22 1 0
BITMAP
000C
0008
0018
C030
C030
C030
C030
C030
C030
C030
C030
C030
C030
C030
C030
C030
C030
C060
6060
60E0
3FC0
1F80
ENDCHAR
STARTCHAR 01CD
ENCODING 461
SWIDTH 540 0
DWIDTH 15 0
BBX 14 25 1 0
BITMAP
10C0
1980
0F00
0600
0000
0F00
3FC0
70E0
6060
6070
E030
C030
C030
C030
C030
C030
C030
C030
C030
C030
C030
C030
C030
FFFC
FFFC
ENDCHAR
STARTCHAR 01CE
ENCODING 462
SWIDTH 540 0
DWIDTH 15 0
BBX 14 25 1 0
BITMAP
10C0
1980
0F00
0600
0000
0F00
3FC0
70E0
6060
6070
E030
C030
C030
C030
C030
C030
C030
C030
C030
C030
C030
C030
C030
FFFC
FFFC
ENDCHAR
STARTCHAR 01CF
ENCODING 463
SWIDTH 144 0
DWIDTH 4 0
BBX 7 18 -1 0
BITMAP
82
C6
6C
38
00
00
38
38
38
38
38
38
38
38
38
38
38
38
ENDCHAR
STARTCHAR 01D0
ENCODING 464
SWIDTH 144 0
DWIDTH 4 0
BBX 7 18 -1 0
BITMAP
82
C6
6C
38
00
00
38
38
38
38
38
38
38
38
38
38
38
38
ENDCHAR
STARTCHAR 01D1
ENCODING 465
SWIDTH 792 0
DWIDTH 22 0
BBX 21 25 1 0
BITMAP
018C00
019800
00F000
006000
000000
01F800
07FF00
1F0780
3801C0
3000E0
600060
600030
C00030
C00038
C00038
C00018
C00038
C00030
E00030
600070
700060
3800E0
1C03C0
0FFF80
03FE00
ENDCHAR
STARTCHAR 01D2
ENCODING 466
SWIDTH 792 0
DWIDTH 22 0
BBX 21 25 1 0
BITMAP
018C00
019800
00F000
006000
000000
01F800
07FF00
1F0780
3801C0
3000E0
600060
600030
C00030
C00038
C00038
C00018
C00038
C00030
E00030
600070
700060
3800E0
1C03C0
0FFF80
03FE00
ENDCHAR
STARTCHAR 01D3
ENCODING 467
SWIDTH 468 0
DWIDTH 13 0
BBX 12 25 1 0
BITMAP
3080
1980
0F00
0600
0000
0000
C030
C030
C030
C030
C030
C030
C030
C030
C030
C030
C030
C030
C030
C030
C060
6060
60E0
3FC0
1F80
ENDCHAR
STARTCHAR 01D4
ENCODING 468
SWIDTH 468 0
DWIDTH 13 0
BBX 12 25 1 0
BITMAP
3080
1980
0F00
0600
0000
0000
C030
C030
C030
C030
C030
C030
C030
C030
C030
C030
C030
C030
C030
C030
C060
6060
60E0
3FC0
1F80
ENDCHAR
STARTCHAR 02C6
ENCODING 710
SWIDTH 288 0
DWIDTH 8 0
BBX 8 4 0 21
BITMAP
18
3C
66
C3
ENDCHAR
STARTCHAR 02C7
ENCODING 711
SWIDTH 288 0
DWIDTH 8 0
BBX 8 4 0 21
BITMAP
C3
66
3C
18
ENDCHAR
STARTCHAR 02D8
ENCODING 728
SWIDTH 252 0
DWIDTH 7 0
BBX 7 4 0 21
BITMAP
82
C2
6E
38
ENDCHAR
STARTCHAR 02D9
ENCODING 729
SWIDTH 108 0
DWIDTH 3 0
BBX 4 4 0 22
BITMAP
20
F0
F0
70
ENDCHAR
STARTCHAR 02DA
ENCODING 730
SWIDTH 180 0
DWIDTH 5 0
BBX 5 6 0 21
BITMAP
20
78
88
88
D8
70
ENDCHAR
STARTCHAR 02DB
ENCODING 731
SWIDTH 180 0
DWIDTH 5 0
BBX 5 5 0 -5
BITMAP
60
C0
80
C8
70
ENDCHAR
STARTCHAR 02DC
ENCODING 732
SWIDTH 216 0
DWIDTH 6 0
BBX 7 2 0 22
BITMAP
FE
0C
ENDCHAR
STARTCHAR 02DD
ENCODING 733
SWIDTH 288 0
DWIDTH 8 0
BBX 9 4 0 21
BITMAP
3180
2300
6200
C400
ENDCHAR
STARTCHAR 0300
ENCODING 768
SWIDTH 0 0
DWIDTH 0 0
BBX 4 4 -4 21
BITMAP
C0
60
60
30
ENDCHAR
STARTCHAR 0301
ENCODING 769
SWIDTH 0 0
DWIDTH 0 0
BBX 4 4 -4 21
BITMAP
30
60
40
C0
ENDCHAR
STARTCHAR 0302
ENCODING 770
SWIDTH 0 0
DWIDTH 0 0
BBX 8 4 -8 21
BITMAP
18
3C
66
C3
ENDCHAR
STARTCHAR 0303
ENCODING 771
SWIDTH 0 0
DWIDTH 0 0
BBX 7 2 -7 22
BITMAP
FE
0C
ENDCHAR
STARTCHAR 0304
ENCODING 772
SWIDTH 0 0
DWIDTH 0 0
BBX 8 2 -8 22
BITMAP
FF
FF
ENDCHAR
STARTCHAR 0306
ENCODING 774
SWIDTH 0 0
DWIDTH 0 0
BBX 7 4 -7 21
BITMAP
86
86
EC
38
ENDCHAR
STARTCHAR 0307
ENCODING 775
SWIDTH 0 0
DWIDTH 0 0
BBX 4 4 -4 22
BITMAP
20
F0
F0
70
ENDCHAR
STARTCHAR 0308
ENCODING 776
SWIDTH 0 0
DWIDTH 0 0
BBX 10 4 -10 21
BITMAP
2080
73C0
F3C0
71C0
ENDCHAR
STARTCHAR 0309
ENCODING 777
SWIDTH 0 0
DWIDTH 0 0
BBX 2 5 -2 21
BITMAP
40
C0
80
80
C0
ENDCHAR
STARTCHAR 030A
ENCODING 778
SWIDTH 0 0
DWIDTH 0 0
BBX 6 6 -6 21
BITMAP
10
78
44
C4
6C
38
ENDCHAR
STARTCHAR 030B
ENCODING 779
SWIDTH 0 0
DWIDTH 0 0
BBX 9 4 -9 21
BITMAP
3180
2300
6200
C600
ENDCHAR
STARTCHAR 030C
ENCODING 780
SWIDTH 0 0
DWIDTH 0 0
BBX 8 4 -8 21
BITMAP
C3
66
3C
18
ENDCHAR
STARTCHAR 031B
ENCODING 795
SWIDTH 0 0
DWIDTH 0 0
BBX 3 3 -3 18
BITMAP
60
60
C0
ENDCHAR
STARTCHAR 0323
ENCODING 803
SWIDTH 0 0
DWIDTH 0 0
BBX 4 3 -4 -7
BITMAP
F0
F0
F0
ENDCHAR
STARTCHAR 0326
ENCODING 806
SWIDTH 0 0
DWIDTH 0 0
BBX 3 4 -3 -6
BITMAP
60
C0
C0
80
ENDCHAR
STARTCHAR 0327
ENCODING 807
SWIDTH 0 0
DWIDTH 0 0
BBX 6 6 -6 -6
BITMAP
10
18
04
04
EC
38
ENDCHAR
STARTCHAR 0328
ENCODING 808
SWIDTH 0 0
DWIDTH 0 0
BBX 5 5 -5 -5
BITMAP
60
80
80
D8
70
ENDCHAR
STARTCHAR 0335
ENCODING 821
SWIDTH 0 0
DWIDTH 0 0
BBX 9 2 -9 5
BITMAP
FF80
FF80
ENDCHAR
STARTCHAR 1EA0
ENCODING 7840
SWIDTH 540 0
DWIDTH 15 0
BBX 14 27 1 -7
BITMAP
0F00
3FC0
70E0
6060
6070
E030
C030
C030
C030
C030
C030
C030
C030
C030
C030
C030
C030
C030
FFFC
FFFC
0000
0000
0000
0000
0F00
0F00
0F00
ENDCHAR
STARTCHAR 1EA1
ENCODING 7841
SWIDTH 540 0
DWIDTH 15 0
BBX 14 27 1 -7
BITMAP
0F00
3FC0
70E0
6060
6070
E030
C030
C030
C030
C030
C030
C030
C030
C030
C030
C030
C030
C030
FFFC
FFFC
0000
0000
0000
0000
0F00
0F00
0F00
ENDCHAR
STARTCHAR 1EA2
ENCODING 7842
SWIDTH 540 0
DWIDTH 15 0
BBX 14 26 1 0
BITMAP
0200
0200
0600
0400
0600
0000
0F00
3FC0
70E0
6060
6070
E030
C030
C030
C030
C030
C030
C030
C030
C030
C030
C030
C030
C030
FFFC
FFFC
ENDCHAR
STARTCHAR 1EA3
ENCODING 7843
SWIDTH 540 0
DWIDTH 15 0
BBX 14 26 1 0
BITMAP
0200
0200
0600
0400
0600
0000
0F00
3FC0
70E0
6060
6070
E030
C030
C030
C030
C030
C030
C030
C030
C030
C030
C030
C030
C030
FFFC
FFFC
ENDCHAR
STARTCHAR 1EA4
ENCODING 7844
SWIDTH 540 0
DWIDTH 15 0
BBX 14 27 1 0
BITMAP
0018
0010
0630
0F00
1980
30C0
0000
0F00
3FC0
70E0
6060
6070
E030
C030
C030
C030
C030
C030
C030
C030
C030
C030
C030
C030
C030
FFFC
FFFC
ENDCHAR
STARTCHAR 1EA5
ENCODING 7845
SWIDTH 540 0
DWIDTH 15 0
BBX 14 27 1 0
BITMAP
0018
0010
0630
0F00
1980
30C0
0000
0F00
3FC0
70E0
6060
6070
E030
C030
C030
C030
C030
C030
C030
C030
C030
C030
C030
C030
C030
FFFC
FFFC
ENDCHAR
STARTCHAR 1EA6
ENCODING 7846
SWIDTH 540 0
DWIDTH 15 0
BBX 15 27 0 0
BITMAP
C000
4000
6300
0780
0CC0
1860
0000
0780
1FE0
3870
3030
3038
7018
6018
6018
6018
6018
6018
6018
6018
6018
6018
6018
6018
6018
7FFE
7FFE
ENDCHAR
STARTCHAR 1EA7
ENCODING 7847
SWIDTH 540 0
DWIDTH 15 0
BBX 15 27 0 0
BITMAP
C000
4000
6300
0780
0CC0
1860
0000
0780
1FE0
3870
3030
3038
7018
6018
6018
6018
6018
6018
6018
6018
6018
6018
6018
6018
6018
7FFE
7FFE
ENDCHAR
STARTCHAR 1EA8
ENCODING 7848
SWIDTH 540 0
DWIDTH 15 0
BBX 14 29 1 0
BITMAP
0020
0020
0020
0060
0660
0F20
1980
30C0
0000
0F00
3FC0
70E0
6060
6070
E030
C030
C030
C030
C030
C030
C030
C030
C030
C030
C030
C030
C030
FFFC
FFFC
ENDCHAR
STARTCHAR 1EA9
ENCODING 7849
SWIDTH 540 0
DWIDTH 15 0
BBX 14 29 1 0
BITMAP
0020
0020
0020
0060
0660
0F20
1980
30C0
0000
0F00
3FC0
70E0
6060
6070
E030
C030
C030
C030
C030
C030
C030
C030
C030
C030
C030
C030
C030
FFFC
FFFC
ENDCHAR
STARTCHAR 1EAA
ENCODING 7850
SWIDTH 540 0
DWIDTH 15 0
BBX 14 27 1 1
BITMAP
03F8
0000
0600
0F00
1980
30C0
0000
0F00
3FC0
70E0
6060
6070
E030
C030
C030
C030
C030
C030
C030
C030
C030
C030
C030
C030
C030
FFFC
FFFC
ENDCHAR
STARTCHAR 1EAB
ENCODING 7851
SWIDTH 540 0
DWIDTH 15 0
BBX 14 27 1 1
BITMAP
03F8
0000
0600
0F00
1980
30C0
0000
0F00
3FC0
70E0
6060
6070
E030
C030
C030
C030
C030
C030
C030
C030
C030
C030
C030
C030
C030
FFFC
FFFC
ENDCHAR
STARTCHAR 1EAC
ENCODING 7852
SWIDTH 540 0
DWIDTH 15 0
BBX 14 32 1 -7
BITMAP
0600
0F00
1980
30C0
0000
0F00
3FC0
70E0
6060
6070
E030
C030
C030
C030
C030
C030
C030
C030
C030
C030
C030
C030
C030
FFFC
FFFC
0000
0000
0000
0000
0F00
0F00
0F00
ENDCHAR
STARTCHAR 1EAD
ENCODING 7853
SWIDTH 540 0
DWIDTH 15 0
BBX 14 32 1 -7
BITMAP
0600
0F00
1980
30C0
0000
0F00
3FC0
70E0
6060
6070
E030
C030
C030
C030
C030
C030
C030
C030
C030
C030
C030
C030
C030
FFFC
FFFC
0000
0000
0000
0000
0F00
0F00
0F00
ENDCHAR
STARTCHAR 1EAE
ENCODING 7854
SWIDTH 540 0
DWIDTH 15 0
BBX 14 28 1 0
BITMAP
0180
0300
0200
30C0
10C0
1F80
0F00
0000
0F00
3FC0
70E0
6060
6070
E030
C030
C030
C030
C030
C030
C030
C030
C030
C030
C030
C030
C030
FFFC
FFFC
ENDCHAR
STARTCHAR 1EAF
ENCODING 7855
SWIDTH 540 0
DWIDTH 15 0
BBX 14 28 1 0
BITMAP
0180
0300
0200
30C0
10C0
1F80
0F00
0000
0F00
3FC0
70E0
6060
6070
E030
C030
C030
C030
C030
C030
C030
C030
C030
C030
C030
C030
C030
FFFC
FFFC
ENDCHAR
STARTCHAR 1EB0
ENCODING 7856
SWIDTH 540 0
DWIDTH 15 0
BBX 14 28 1 0
BITMAP
1800
0800
0C00
30C0
10C0
1F80
0F00
0000
0F00
3FC0
70E0
6060
6070
E030
C030
C030
C030
C030
C030
C030
C030
C030
C030
C030
C030
C030
FFFC
FFFC
ENDCHAR
STARTCHAR 1EB1
ENCODING 7857
SWIDTH 540 0
DWIDTH 15 0
BBX 14 28 1 0
BITMAP
1800
0800
0C00
30C0
10C0
1F80
0F00
0000
0F00
3FC0
70E0
6060
6070
E030
C030
C030
C030
C030
C030
C030
C030
C030
C030
C030
C030
C030
FFFC
FFFC
ENDCHAR
STARTCHAR 1EB2
ENCODING 7858
SWIDTH 540 0
DWIDTH 15 0
BBX 14 29 1 0
BITMAP
0200
0300
0200
0600
36C0
10C0
1F80
0F00
0000
0F00
3FC0
70E0
6060
6070
E030
C030
C030
C030
C030
C030
C030
C030
C030
C030
C030
C030
C030
FFFC
FFFC
ENDCHAR
STARTCHAR 1EB3
ENCODING 7859
SWIDTH 540 0
DWIDTH 15 0
BBX 14 29 1 0
BITMAP
0200
0300
0200
0600
36C0
10C0
1F80
0F00
0000
0F00
3FC0
70E0
6060
6070
E030
C030
C030
C030
C030
C030
C030
C030
C030
C030
C030
C030
C030
FFFC
FFFC
ENDCHAR
STARTCHAR 1EB4
ENCODING 7860
SWIDTH 540 0
DWIDTH 15 0
BBX 14 28 1 0
BITMAP
0800
1F80
0000
30C0
10C0
1F80
0F00
0000
0F00
3FC0
70E0
6060
6070
E030
C030
C030
C030
C030
C030
C030
C030
C030
C030
C030
C030
C030
FFFC
FFFC
ENDCHAR
STARTCHAR 1EB5
ENCODING 7861
SWIDTH 540 0
DWIDTH 15 0
BBX 14 28 1 0
BITMAP
0800
1F80
0000
30C0
10C0
1F80
0F00
0000
0F00
3FC0
70E0
6060
6070
E030
C030
C030
C030
C030
C030
C030
C030
C030
C030
C030
C030
C030
FFFC
FFFC
ENDCHAR
STARTCHAR 1EB6
ENCODING 7862
SWIDTH 540 0
DWIDTH 15 0
BBX 14 32 1 -7
BITMAP
30C0
10C0
1F80
0F00
0000
0F00
3FC0
70E0
6060
6070
E030
C030
C030
C030
C030
C030
C030
C030
C030
C030
C030
C030
C030
FFFC
FFFC
0000
0000
0000
0000
0F00
0F00
0F00
ENDCHAR
STARTCHAR 1EB7
ENCODING 7863
SWIDTH 540 0
DWIDTH 15 0
BBX 14 32 1 -7
BITMAP
30C0
10C0
1F80
0F00
0000
0F00
3FC0
70E0
6060
6070
E030
C030
C030
C030
C030
C030
C030
C030
C030
C030
C030
C030
C030
FFFC
FFFC
0000
0000
0000
0000
0F00
0F00
0F00
ENDCHAR
STARTCHAR 1EB8
ENCODING 7864
SWIDTH 468 0
DWIDTH 13 0
BBX 12 26 1 -7
BITMAP
3F80
3000
3000
3000
3000
3000
3000
3000
FFC0
FFC0
3000
3000
3000
3000
3000
3000
3000
3FF0
3FF0
0000
0000
0000
0000
0380
0780
0380
ENDCHAR
STARTCHAR 1EB9
ENCODING 7865
SWIDTH 468 0
DWIDTH 13 0
BBX 12 26 1 -7
BITMAP
3F80
3000
3000
3000
3000
3000
3000
3000
FFC0
FFC0
3000
3000
3000
3000
3000
3000
3000
3FF0
3FF0
0000
0000
0000
0000
0380
0780
0380
ENDCHAR
STARTCHAR 1EBA
ENCODING 7866
SWIDTH 468 0
DWIDTH 13 0
BBX 12 26 1 0
BITMAP
0400
0400
0C00
0C00
0400
0000
0000
3F80
3000
3000
3000
3000
3000
3000
3000
FFC0
FFC0
3000
3000
3000
3000
3000
3000
3000
3FF0
3FF0
ENDCHAR
STARTCHAR 1EBB
ENCODING 7867
SWIDTH 468 0
DWIDTH 13 0
BBX 12 26 1 0
BITMAP
0400
0400
0C00
0C00
0400
0000
0000
3F80
3000
3000
3000
3000
3000
3000
3000
FFC0
FFC0
3000
3000
3000
3000
3000
3000
3000
3FF0
3FF0
ENDCHAR
STARTCHAR 1EBC
ENCODING 7868
SWIDTH 468 0
DWIDTH 13 0
BBX 12 24 1 0
BITMAP
3F00
0200
0000
0000
0000
3F80
3000
3000
3000
3000
3000
3000
3000
FFC0
FFC0
3000
3000
3000
3000
3000
3000
3000
3FF0
3FF0
ENDCHAR
STARTCHAR 1EBD
ENCODING 7869
SWIDTH 468 0
DWIDTH 13 0
BBX 12 24 1 0
BITMAP
3F00
0200
0000
0000
0000
3F80
3000
3000
3000
3000
3000
3000
3000
FFC0
FFC0
3000
3000
3000
3000
3000
3000
3000
3FF0
3FF0
ENDCHAR
STARTCHAR 1EBE
ENCODING 7870
SWIDTH 468 0
DWIDTH 13 0
BBX 12 27 1 0
BITMAP
0030
0030
0E60
1B00
3300
3180
0000
0000
3F80
3000
3000
3000
3000
3000
3000
3000
FFC0
FFC0
3000
3000
3000
3000
3000
3000
3000
3FF0
3FF0
ENDCHAR
STARTCHAR 1EBF
ENCODING 7871
SWIDTH 468 0
DWIDTH 13 0
BBX 12 27 1 0
BITMAP
0030
0030
0E60
1B00
3300
3180
0000
0000
3F80
3000
3000
3000
3000
3000
3000
3000
FFC0
FFC0
3000
3000
3000
3000
3000
3000
3000
3FF0
3FF0
ENDCHAR
STARTCHAR 1EC0
ENCODING 7872
SWIDTH 468 0
DWIDTH 13 0
BBX 14 27 -1 0
BITMAP
C000
6000
2380
06C0
0CC0
0C60
0000
0000
0FE0
0C00
0C00
0C00
0C00
0C00
0C00
0C00
3FF0
3FF0
0C00
0C00
0C00
0C00
0C00
0C00
0C00
0FFC
0FFC
ENDCHAR
STARTCHAR 1EC1
ENCODING 7873
SWIDTH 468 0
DWIDTH 13 0
BBX 14 27 -1 0
BITMAP
C000
6000
2380
06C0
0CC0
0C60
0000
0000
0FE0
0C00
0C00
0C00
0C00
0C00
0C00
0C00
3FF0
3FF0
0C00
0C00
0C00
0C00
0C00
0C00
0C00
0FFC
0FFC
ENDCHAR
STARTCHAR 1EC2
ENCODING 7874
SWIDTH 468 0
DWIDTH 13 0
BBX 12 29 1 0
BITMAP
0040
0060
0060
0040
0E40
1B40
3300
3180
0000
0000
3F80
3000
3000
3000
3000
3000
3000
3000
FFC0
FFC0
3000
3000
3000
3000
3000
3000
3000
3FF0
3FF0
ENDCHAR
STARTCHAR 1EC3
ENCODING 7875
SWIDTH 468 0
DWIDTH 13 0
BBX 12 29 1 0
BITMAP
0040
0060
0060
0040
0E40
1B40
3300
3180
0000
0000
3F80
3000
3000
3000
3000
3000
3000
3000
FFC0
FFC0
3000
3000
3000
3000
3000
3000
3000
3FF0
3FF0
ENDCHAR
STARTCHAR 1EC4
ENCODING 7876
SWIDTH 468 0
DWIDTH 13 0
BBX 12 27 1 1
BITMAP
07F0
0060
0E00
1B00
3300
3180
0000
0000
3F80
3000
3000
3000
3000
3000
3000
3000
FFC0
FFC0
3000
3000
3000
3000
3000
3000
3000
3FF0
3FF0
ENDCHAR
STARTCHAR 1EC5
ENCODING 7877
SWIDTH 468 0
DWIDTH 13 0
BBX 12 27 1 1
BITMAP
07F0
0060
0E00
1B00
3300
3180
0000
0000
3F80
3000
3000
3000
3000
3000
3000
3000
FFC0
FFC0
3000
3000
3000
3000
3000
3000
3000
3FF0
3FF0
ENDCHAR
STARTCHAR 1EC6
ENCODING 7878
SWIDTH 468 0
DWIDTH 13 0
BBX 12 32 1 -7
BITMAP
0E00
1B00
3300
3180
0000
0000
3F80
3000
3000
3000
3000
3000
3000
3000
FFC0
FFC0
3000
3000
3000
3000
3000
3000
3000
3FF0
3FF0
0000
0000
0000
0000
0380
0780
0380
ENDCHAR
STARTCHAR 1EC7
ENCODING 7879
SWIDTH 468 0
DWIDTH 13 0
BBX 12 32 1 -7
BITMAP
0E00
1B00
3300
3180
0000
0000
3F80
3000
3000
3000
3000
3000
3000
3000
FFC0
FFC0
3000
3000
3000
3000
3000
3000
3000
3FF0
3FF0
0000
0000
0000
0000
0380
0780
0380
ENDCHAR
STARTCHAR 1EC8
ENCODING 7880
SWIDTH 144 0
DWIDTH 4 0
BBX 3 19 1 0
BITMAP
40
40
40
C0
C0
00
00
E0
E0
E0
E0
E0
E0
E0
E0
E0
E0
E0
E0
ENDCHAR
STARTCHAR 1EC9
ENCODING 7881
SWIDTH 144 0
DWIDTH 4 0
BBX 3 19 1 0
BITMAP
40
40
40
C0
C0
00
00
E0
E0
E0
E0
E0
E0
E0
E0
E0
E0
E0
E0
ENDCHAR
STARTCHAR 1ECA
ENCODING 7882
SWIDTH 144 0
DWIDTH 4 0
BBX 5 28 0 -6
BITMAP
20
20
F8
70
50
00
00
00
00
60
60
60
60
60
60
60
60
60
60
60
60
00
00
00
00
70
F0
70
ENDCHAR
STARTCHAR 1ECB
ENCODING 7883
SWIDTH 144 0
DWIDTH 4 0
BBX 5 28 0 -6
BITMAP
20
20
F8
70
50
00
00
00
00
60
60
60
60
60
60
60
60
60
60
60
60
00
00
00
00
70
F0
70
ENDCHAR
STARTCHAR 1ECC
ENCODING 7884
SWIDTH 792 0
DWIDTH 22 0
BBX 21 27 1 -7
BITMAP
01F800
07FF00
1F0780
3801C0
3000E0
600060
600030
C00030
C00038
C00038
C00018
C00038
C00030
E00030
600070
700060
3800E0
1C03C0
0FFF80
03FE00
000000
000000
000000
000000
007000
00F000
007000
ENDCHAR
STARTCHAR 1ECD
ENCODING 7885
SWIDTH 792 0
DWIDTH 22 0
BBX 21 27 1 -7
BITMAP
01F800
07FF00
1F0780
3801C0
3000E0
600060
600030
C00030
C00038
C00038
C00018
C00038
C00030
E00030
600070
700060
3800E0
1C03C0
0FFF80
03FE00
000000
000000
000000
000000
007000
00F000
007000
ENDCHAR
STARTCHAR 1ECE
ENCODING 7886
SWIDTH 792 0
DWIDTH 22 0
BBX 21 26 1 0
BITMAP
002000
002000
006000
006000
006000
000000
01F800
07FF00
1F0780
3801C0
3000E0
600060
600030
C00030
C00038
C00038
C00018
C00038
C00030
E00030
600070
700060
3800E0
1C03C0
0FFF80
03FE00
ENDCHAR
STARTCHAR 1ECF
ENCODING 7887
SWIDTH 792 0
DWIDTH 22 0
BBX 21 26 1 0
BITMAP
002000
002000
006000
006000
006000
000000
01F800
07FF00
1F0780
3801C0
3000E0
600060
600030
C00030
C00038
C00038
C00018
C00038
C00030
E00030
600070
700060
3800E0
1C03C0
0FFF80
03FE00
ENDCHAR
STARTCHAR 1ED0
ENCODING 7888
SWIDTH 792 0
DWIDTH 22 0
BBX 21 27 1 0
BITMAP
000180
000100
007300
00F000
019800
010C00
000000
01F800
07FF00
1F0780
3801C0
3000E0
600060
600030
C00030
C00038
C00038
C00018
C00038
C00030
E00030
600070
700060
3800E0
1C03C0
0FFF80
03FE00
ENDCHAR
STARTCHAR 1ED1
ENCODING 7889
SWIDTH 792 0
DWIDTH 22 0
BBX 21 27 1 0
BITMAP
000180
000100
007300
00F000
019800
010C00
000000
01F800
07FF00
1F0780
3801C0
3000E0
600060
600030
C00030
C00038
C00038
C00018
C00038
C00030
E00030
600070
700060
3800E0
1C03C0
0FFF80
03FE00
ENDCHAR
STARTCHAR 1ED2
ENCODING 7890
SWIDTH 792 0
DWIDTH 22 0
BBX 21 27 1 0
BITMAP
180000
080000
0C7000
00F000
019800
010C00
000000
01F800
07FF00
1F0780
3801C0
3000E0
600060
600030
C00030
C00038
C00038
C00018
C00038
C00030
E00030
600070
700060
3800E0
1C03C0
0FFF80
03FE00
ENDCHAR
STARTCHAR 1ED3
ENCODING 7891
SWIDTH 792 0
DWIDTH 22 0
BBX 21 27 1 0
BITMAP
180000
080000
0C7000
00F000
019800
010C00
000000
01F800
07FF00
1F0780
3801C0
3000E0
600060
600030
C00030
C00038
C00038
C00018
C00038
C00030
E00030
600070
700060
3800E0
1C03C0
0FFF80
03FE00
ENDCHAR
STARTCHAR 1ED4
ENCODING 7892
SWIDTH 792 0
DWIDTH 22 0
BBX 21 29 1 0
BITMAP
000200
000300
000200
000200
007600
00F200
019800
010C00
000000
01F800
07FF00
1F0780
3801C0
3000E0
600060
600030
C00030
C00038
C00038
C00018
C00038
C00030
E00030
600070
700060
3800E0
1C03C0
0FFF80
03FE00
ENDCHAR
STARTCHAR 1ED5
ENCODING 7893
SWIDTH 792 0
DWIDTH 22 0
BBX 21 29 1 0
BITMAP
000200
000300
000200
000200
007600
00F200
019800
010C00
000000
01F800
07FF00
1F0780
3801C0
3000E0
600060
600030
C00030
C00038
C00038
C00018
C00038
C00030
E00030
600070
700060
3800E0
1C03C0
0FFF80
03FE00
ENDCHAR
STARTCHAR 1ED6
ENCODING 7894
SWIDTH 792 0
DWIDTH 22 0
BBX 21 27 1 1
BITMAP
003F80
000000
007000
00F000
019800
010C00
000000
01F800
07FF00
1F0780
3801C0
3000E0
600060
600030
C00030
C00038
C00038
C00018
C00038
C00030
E00030
600070
700060
3800E0
1C03C0
0FFF80
03FE00
ENDCHAR
STARTCHAR 1ED7
ENCODING 7895
SWIDTH 792 0
DWIDTH 22 0
BBX 21 27 1 1
BITMAP
003F80
000000
007000
00F000
019800
010C00
000000
01F800
07FF00
1F0780
3801C0
3000E0
600060
600030
C00030
C00038
C00038
C00018
C00038
C00030
E00030
600070
700060
3800E0
1C03C0
0FFF80
03FE00
ENDCHAR
STARTCHAR 1ED8
ENCODING 7896
SWIDTH 792 0
DWIDTH 22 0
BBX 21 32 1 -7
BITMAP
007000
00F000
019800
010C00
000000
01F800
07FF00
1F0780
3801C0
3000E0
600060
600030
C00030
C00038
C00038
C00018
C00038
C00030
E00030
600070
700060
3800E0
1C03C0
0FFF80
03FE00
000000
000000
000000
000000
007000
00F000
007000
ENDCHAR
STARTCHAR 1ED9
ENCODING 7897
SWIDTH 792 0
DWIDTH 22 0
BBX 21 32 1 -7
BITMAP
007000
00F000
019800
010C00
000000
01F800
07FF00
1F0780
3801C0
3000E0
600060
600030
C00030
C00038
C00038
C00018
C00038
C00030
E00030
600070
700060
3800E0
1C03C0
0FFF80
03FE00
000000
000000
000000
000000
007000
00F000
007000
ENDCHAR
STARTCHAR 1EDA
ENCODING 7898
SWIDTH 792 0
DWIDTH 22 0
BBX 21 25 1 0
BITMAP
001800
003000
002000
0060C0
0000C0
01F980
07FF00
1F0780
3801C0
3000E0
600060
600030
C00030
C00038
C00038
C00018
C00038
C00030
E00030
600070
700060
3800E0
1C03C0
0FFF80
03FE00
ENDCHAR
STARTCHAR 1EDB
ENCODING 7899
SWIDTH 792 0
DWIDTH 22 0
BBX 21 25 1 0
BITMAP
001800
003000
002000
0060C0
0000C0
01F980
07FF00
1F0780
3801C0
3000E0
600060
600030
C00030
C00038
C00038
C00018
C00038
C00030
E00030
600070
700060
3800E0
1C03C0
0FFF80
03FE00
ENDCHAR
STARTCHAR 1EDC
ENCODING 7900
SWIDTH 792 0
DWIDTH 22 0
BBX 21 25 1 0
BITMAP
018000
00C000
006000
0020C0
0000C0
01F980
07FF00
1F0780
3801C0
3000E0
600060
600030
C00030
C00038
C00038
C00018
C00038
C00030
E00030
600070
700060
3800E0
1C03C0
0FFF80
03FE00
ENDCHAR
STARTCHAR 1EDD
ENCODING 7901
SWIDTH 792 0
DWIDTH 22 0
BBX 21 25 1 0
BITMAP
018000
00C000
006000
0020C0
0000C0
01F980
07FF00
1F0780
3801C0
3000E0
600060
600030
C00030
C00038
C00038
C00018
C00038
C00030
E00030
600070
700060
3800E0
1C03C0
0FFF80
03FE00
ENDCHAR
STARTCHAR 1EDE
ENCODING 7902
SWIDTH 792 0
DWIDTH 22 0
BBX 21 26 1 0
BITMAP
002000
002000
006000
006000
0060C0
0000C0
01F980
07FF00
1F0780
3801C0
3000E0
600060
600030
C00030
C00038
C00038
C00018
C00038
C00030
E00030
600070
700060
3800E0
1C03C0
0FFF80
03FE00
ENDCHAR
STARTCHAR 1EDF
ENCODING 7903
SWIDTH 792 0
DWIDTH 22 0
BBX 21 26 1 0
BITMAP
002000
002000
006000
006000
0060C0
0000C0
01F980
07FF00
1F0780
3801C0
3000E0
600060
600030
C00030
C00038
C00038
C00018
C00038
C00030
E00030
600070
700060
3800E0
1C03C0
0FFF80
03FE00
ENDCHAR
STARTCHAR 1EE0
ENCODING 7904
SWIDTH 792 0
DWIDTH 22 0
BBX 21 24 1 0
BITMAP
01F800
001800
0000C0
0000C0
01F980
07FF00
1F0780
3801C0
3000E0
600060
600030
C00030
C00038
C00038
C00018
C00038
C00030
E00030
600070
700060
3800E0
1C03C0
0FFF80
03FE00
ENDCHAR
STARTCHAR 1EE1
ENCODING 7905
SWIDTH 792 0
DWIDTH 22 0
BBX 21 24 1 0
BITMAP
01F800
001800
0000C0
0000C0
01F980
07FF00
1F0780
3801C0
3000E0
600060
600030
C00030
C00038
C00038
C00018
C00038
C00030
E00030
600070
700060
3800E0
1C03C0
0FFF80
03FE00
ENDCHAR
STARTCHAR 1EE2
ENCODING 7906
SWIDTH 792 0
DWIDTH 22 0
BBX 21 29 1 -7
BITMAP
0000C0
0000C0
01F980
07FF00
1F0780
3801C0
3000E0
600060
600030
C00030
C00038
C00038
C00018
C00038
C00030
E00030
600070
700060
3800E0
1C03C0
0FFF80
03FE00
000000
000000
000000
000000
007000
00F000
007000
ENDCHAR
STARTCHAR 1EE3
ENCODING 7907
SWIDTH 792 0
DWIDTH 22 0
BBX 21 29 1 -7
BITMAP
0000C0
0000C0
01F980
07FF00
1F0780
3801C0
3000E0
600060
600030
C00030
C00038
C00038
C00018
C00038
C00030
E00030
600070
700060
3800E0
1C03C0
0FFF80
03FE00
000000
000000
000000
000000
007000
00F000
007000
ENDCHAR
STARTCHAR 1EE4
ENCODING 7908
SWIDTH 468 0
DWIDTH 13 0
BBX 12 26 1 -7
BITMAP
C030
C030
C030
C030
C030
C030
C030
C030
C030
C030
C030
C030
C030
C030
C060
6060
60E0
3FC0
1F80
0000
0000
0000
0000
0F00
0F00
0F00
ENDCHAR
STARTCHAR 1EE5
ENCODING 7909
SWIDTH 468 0
DWIDTH 13 0
BBX 12 26 1 -7
BITMAP
C030
C030
C030
C030
C030
C030
C030
C030
C030
C030
C030
C030
C030
C030
C060
6060
60E0
3FC0
1F80
0000
0000
0000
0000
0F00
0F00
0F00
ENDCHAR
STARTCHAR 1EE6
ENCODING 7910
SWIDTH 468 0
DWIDTH 13 0
BBX 12 26 1 0
BITMAP
0600
0600
0400
0400
0400
0000
0000
C030
C030
C030
C030
C030
C030
C030
C030
C030
C030
C030
C030
C030
C030
C060
6060
60E0
3FC0
1F80
ENDCHAR
STARTCHAR 1EE7
ENCODING 7911
SWIDTH 468 0
DWIDTH 13 0
BBX 12 26 1 0
BITMAP
0600
0600
0400
0400
0400
0000
0000
C030
C030
C030
C030
C030
C030
C030
C030
C030
C030
C030
C030
C030
C030
C060
6060
60E0
3FC0
1F80
ENDCHAR
STARTCHAR 1EE8
ENCODING 7912
SWIDTH 468 0
DWIDTH 13 0
BBX 14 25 1 0
BITMAP
0180
0300
0600
040C
0008
0018
C030
C030
C030
C030
C030
C030
C030
C030
C030
C030
C030
C030
C030
C030
C060
6060
60E0
3FC0
1F80
ENDCHAR
STARTCHAR 1EE9
ENCODING 7913
SWIDTH 468 0
DWIDTH 13 0
BBX 14 25 1 0
BITMAP
0180
0300
0600
040C
0008
0018
C030
C030
C030
C030
C030
C030
C030
C030
C030
C030
C030
C030
C030
C030
C060
6060
60E0
3FC0
1F80
ENDCHAR
STARTCHAR 1EEA
ENCODING 7914
SWIDTH 468 0
DWIDTH 13 0
BBX 14 25 1 0
BITMAP
1800
0C00
0400
060C
0008
0018
C030
C030
C030
C030
C030
C030
C030
C030
C030
C030
C030
C030
C030
C030
C060
6060
60E0
3FC0
1F80
ENDCHAR
STARTCHAR 1EEB
ENCODING 7915
SWIDTH 468 0
DWIDTH 13 0
BBX 14 25 1 0
BITMAP
1800
0C00
0400
060C
0008
0018
C030
C030
C030
C030
C030
C030
C030
C030
C030
C030
C030
C030
C030
C030
C060
6060
60E0
3FC0
1F80
ENDCHAR
STARTCHAR 1EEC
ENCODING 7916
SWIDTH 468 0
DWIDTH 13 0
BBX 14 26 1 0
BITMAP
0600
0600
0400
0400
040C
0008
0018
C030
C030
C030
C030
C030
C030
C030
C030
C030
C030
C030
C030
C030
C030
C060
6060
60E0
3FC0
1F80
ENDCHAR
STARTCHAR 1EED
ENCODING 7917
SWIDTH 468 0
DWIDTH 13 0
BBX 14 26 1 0
BITMAP
0600
0600
0400
0400
040C
0008
0018
C030
C030
C030
C030
C030
C030
C030
C030
C030
C030
C030
C030
C030
C030
C060
6060
60E0
3FC0
1F80
ENDCHAR
STARTCHAR 1EEE
ENCODING 7918
SWIDTH 468 0
DWIDTH 13 0
BBX 14 24 1 0
BITMAP
3F80
0300
000C
0008
0018
C030
C030
C030
C030
C030
C030
C030
C030
C030
C030
C030
C030
C030
C030
C060
6060
60E0
3FC0
1F80
ENDCHAR
STARTCHAR 1EEF
ENCODING 7919
SWIDTH 468 0
DWIDTH 13 0
BBX 14 24 1 0
BITMAP
3F80
0300
000C
0008
0018
C030
C030
C030
C030
C030
C030
C030
C030
C030
C030
C030
C030
C030
C030
C060
6060
60E0
3FC0
1F80
ENDCHAR
STARTCHAR 1EF0
ENCODING 7920
SWIDTH 468 0
DWIDTH 13 0
BBX 14 29 1 -7
BITMAP
000C
0008
0018
C030
C030
C030
C030
C030
C030
C030
C030
C030
C030
C030
C030
C030
C030
C060
6060
60E0
3FC0
1F80
0000
0000
0000
0000
0F00
0F00
0F00
ENDCHAR
STARTCHAR 1EF1
ENCODING 7921
SWIDTH 468 0
DWIDTH 13 0
BBX 14 29 1 -7
BITMAP
000C
0008
0018
C030
C030
C030
C030
C030
C030
C030
C030
C030
C030
C030
C030
C030
C030
C060
6060
60E0
3FC0
1F80
0000
0000
0000
0000
0F00
0F00
0F00
ENDCHAR
STARTCHAR 1EF2
ENCODING 7922
SWIDTH 468 0
DWIDTH 13 0
BBX 12 25 1 0
BITMAP
1800
0C00
0400
0600
0000
0000
C070
C070
C070
C070
C070
C070
C070
C070
C060
C060
E060
60E0
3FC0
1F80
0600
0600
0600
0600
0600
ENDCHAR
STARTCHAR 1EF3
ENCODING 7923
SWIDTH 468 0
DWIDTH 13 0
BBX 12 25 1 0
BITMAP
1800
0C00
0400
0600
0000
0000
C070
C070
C070
C070
C070
C070
C070
C070
C060
C060
E060
60E0
3FC0
1F80
0600
0600
0600
0600
0600
ENDCHAR
STARTCHAR 1EF4
ENCODING 7924
SWIDTH 468 0
DWIDTH 13 0
BBX 12 26 1 -7
BITMAP
C070
C070
C070
C070
C070
C070
C070
C070
C060
C060
E060
60E0
3FC0
1F80
0600
0600
0600
0600
0600
0000
0000
0000
0000
0E00
0F00
0E00
ENDCHAR
STARTCHAR 1EF5
ENCODING 7925
SWIDTH 468 0
DWIDTH 13 0
BBX 12 26 1 -7
BITMAP
C070
C070
C070
C070
C070
C070
C070
C070
C060
C060
E060
60E0
3FC0
1F80
0600
0600
0600
0600
0600
0000
0000
0000
0000
0E00
0F00
0E00
ENDCHAR
STARTCHAR 1EF6
ENCODING 7926
SWIDTH 468 0
DWIDTH 13 0
BBX 12 26 1 0
BITMAP
0600
0600
0400
0400
0400
0000
0000
C070
C070
C070
C070
C070
C070
C070
C070
C060
C060
E060
60E0
3FC0
1F80
0600
0600
0600
0600
0600
ENDCHAR
STARTCHAR 1EF7
ENCODING 7927
SWIDTH 468 0
DWIDTH 13 0
BBX 12 26 1 0
BITMAP
0600
0600
0400
0400
0400
0000
0000
C070
C070
C070
C070
C070
C070
C070
C070
C060
C060
E060
60E0
3FC0
1F80
0600
0600
0600
0600
0600
ENDCHAR
STARTCHAR 1EF8
ENCODING 7928
SWIDTH 468 0
DWIDTH 13 0
BBX 12 24 1 0
BITMAP
3F80
0300
0000
0000
0000
C070
C070
C070
C070
C070
C070
C070
C070
C060
C060
E060
60E0
3FC0
1F80
0600
0600
0600
0600
0600
ENDCHAR
STARTCHAR 1EF9
ENCODING 7929
SWIDTH 468 0
DWIDTH 13 0
BBX 12 24 1 0
BITMAP
3F80
0300
0000
0000
0000
C070
C070
C070
C070
C070
C070
C070
C070
C060
C060
E060
60E0
3FC0
1F80
0600
0600
0600
0600
0600
ENDCHAR
STARTCHAR 2013
ENCODING 8211
SWIDTH 576 0
DWIDTH 16 0
BBX 14 1 1 7
BITMAP
FFFC
ENDCHAR
STARTCHAR 2014
ENCODING 8212
SWIDTH 792 0
DWIDTH 22 0
BBX 20 1 1 7
BITMAP
FFFFF0
ENDCHAR
STARTCHAR 2018
ENCODING 8216
SWIDTH 216 0
DWIDTH 6 0
BBX 3 5 2 14
BITMAP
60
40
C0
C0
C0
ENDCHAR
STARTCHAR 2019
ENCODING 8217
SWIDTH 216 0
DWIDTH 6 0
BBX 2 5 2 14
BITMAP
C0
C0
C0
80
80
ENDCHAR
STARTCHAR 201A
ENCODING 8218
SWIDTH 216 0
DWIDTH 6 0
BBX 3 5 2 -3
BITMAP
E0
C0
C0
80
80
ENDCHAR
STARTCHAR 201C
ENCODING 8220
SWIDTH 360 0
DWIDTH 10 0
BBX 7 5 2 14
BITMAP
62
66
46
C6
CC
ENDCHAR
STARTCHAR 201D
ENCODING 8221
SWIDTH 360 0
DWIDTH 10 0
BBX 7 5 2 14
BITMAP
C6
C4
CC
8C
88
ENDCHAR
STARTCHAR 201E
ENCODING 8222
SWIDTH 396 0
DWIDTH 11 0
BBX 8 5 2 -3
BITMAP
E7
C6
C6
84
84
ENDCHAR
STARTCHAR 2020
ENCODING 8224
SWIDTH 396 0
DWIDTH 11 0
BBX 9 13 1 7
BITMAP
0C00
0C00
0C00
FF80
FF80
0C00
0C00
0C00
0C00
0C00
0C00
0C00
0C00
ENDCHAR
STARTCHAR 2021
ENCODING 8225
SWIDTH 396 0
DWIDTH 11 0
BBX 9 13 1 7
BITMAP
0C00
0C00
0C00
FF80
FF80
0C00
0C00
0C00
FF80
FF80
0C00
0C00
0C00
ENDCHAR
STARTCHAR 2022
ENCODING 8226
SWIDTH 288 0
DWIDTH 8 0
BBX 6 5 1 5
BITMAP
78
7C
FC
7C
78
ENDCHAR
STARTCHAR 2026
ENCODING 8230
SWIDTH 612 0
DWIDTH 17 0
BBX 15 3 1 0
BITMAP
73CE
F3CE
73CE
ENDCHAR
STARTCHAR 2030
ENCODING 8240
SWIDTH 1224 0
DWIDTH 34 0
BBX 32 20 1 0
BITMAP
0C000000
3F00C000
61818000
60C10000
C0C30000
C0C60000
60CC0000
718C0000
3F180000
00300000
00300000
0063C07C
00C7F0FE
008C3987
018C1983
03081983
060C1983
060C1983
0C0770EE
1803E07C
ENDCHAR
STARTCHAR 2039
ENCODING 8249
SWIDTH 324 0
DWIDTH 9 0
BBX 7 13 1 2
BITMAP
06
0C
1C
18
30
60
E0
60
30
18
1C
0C
06
ENDCHAR
STARTCHAR 203A
ENCODING 8250
SWIDTH 324 0
DWIDTH 9 0
BBX 7 13 1 2
BITMAP
E0
60
30
18
0C
0C
06
0C
0C
18
30
60
E0
ENDCHAR
STARTCHAR 2044
ENCODING 8260
SWIDTH 648 0
DWIDTH 18 0
BBX 14 19 2 0
BITMAP
000C
000C
0018
0030
0020
0060
00C0
0180
0180
0300
0600
0600
0C00
1800
1000
3000
6000
C000
C000
ENDCHAR
STARTCHAR 20AC
ENCODING 8364
SWIDTH 648 0
DWIDTH 18 0
BBX 16 20 1 0
BITMAP
001E
00FF
01E3
0780
0600
0C00
0C00
1800
FFF8
1800
1800
FFF8
FFF8
1C00
0C00
0E00
0700
0380
01FF
007F
ENDCHAR
STARTCHAR 2122
ENCODING 8482
SWIDTH 756 0
DWIDTH 21 0
BBX 19 11 1 9
BITMAP
FF0060
FF8660
18E7E0
18F5E0
18DC60
18CC60
18C460
18C460
18C460
18C460
18C460
ENDCHAR
STARTCHAR 2190
ENCODING 8592
SWIDTH 792 0
DWIDTH 22 0
BBX 19 12 2 4
BITMAP
060000
0C0000
180000
300000
600000
FFFFE0
FFFFE0
600000
300000
180000
0C0000
060000
ENDCHAR
STARTCHAR 2191
ENCODING 8593
SWIDTH 540 0
DWIDTH 15 0
BBX 12 20 2 0
BITMAP
0400
0E00
1F00
3F80
76C0
E660
C630
0600
0600
0600
0600
0600
0600
0600
0600
0600
0600
0600
0600
0600
ENDCHAR
STARTCHAR 2192
ENCODING 8594
SWIDTH 792 0
DWIDTH 22 0
BBX 20 12 1 4
BITMAP
000600
000300
000180
0000C0
000060
FFFFF0
FFFFF0
000060
0000C0
000180
000300
000600
ENDCHAR
STARTCHAR 2193
ENCODING 8595
SWIDTH 540 0
DWIDTH 15 0
BBX 12 19 2 -1
BITMAP
0600
0600
0600
0600
0600
0600
0600
0600
0600
0600
0600
0600
8630
C670
66E0
37C0
1F80
0F00
0600
ENDCHAR
STARTCHAR 2194
ENCODING 8596
SWIDTH 864 0
DWIDTH 24 0
BBX 20 12 2 4
BITMAP
060200
0C0300
180180
3000C0
600060
FFFFF0
FFFFF0
600060
3000C0
180180
0C0300
060200
ENDCHAR
STARTCHAR 2195
ENCODING 8597
SWIDTH 576 0
DWIDTH 16 0
BBX 13 20 2 -1
BITMAP
0200
0700
1F80
3EC0
7670
C638
8618
0600
0600
0600
0600
0600
0600
8600
C618
E630
36E0
1FC0
0F80
0700
ENDCHAR
STARTCHAR 2196
ENCODING 8598
SWIDTH 612 0
DWIDTH 17 0
BBX 15 14 1 2
BITMAP
FF80
FF80
F000
D800
CC00
C600
C300
C180
C0C0
0060
0030
0018
000C
0006
ENDCHAR
STARTCHAR 2197
ENCODING 8599
SWIDTH 612 0
DWIDTH 17 0
BBX 14 14 2 2
BITMAP
07FC
07FC
003C
0074
00E4
01C4
0384
0704
0E04
1C00
3800
7000
E000
C000
ENDCHAR
STARTCHAR 2198
ENCODING 8600
SWIDTH 612 0
DWIDTH 17 0
BBX 14 15 2 2
BITMAP
8000
C000
6000
3000
1800
0C00
0604
0304
0184
00C4
0064
0034
001C
07FC
07FC
ENDCHAR
STARTCHAR 2199
ENCODING 8601
SWIDTH 612 0
DWIDTH 17 0
BBX 15 15 1 2
BITMAP
0006
000E
001C
0038
0070
00E0
C1C0
C380
C700
CE00
DC00
F800
F000
FF80
FF80
ENDCHAR
STARTCHAR 2202
ENCODING 8706
SWIDTH 540 0
DWIDTH 15 0
BBX 13 20 1 0
BITMAP
0C00
1E00
0780
03C0
00E0
0060
0070
0030
0FB8
3FD8
7078
6038
6018
E018
E018
E030
6030
7060
3FE0
1F80
ENDCHAR
STARTCHAR 2205
ENCODING 8709
SWIDTH 684 0
DWIDTH 19 0
BBX 17 16 1 2
BITMAP
07F880
0C0D00
100600
200700
600980
401080
402080
404080
408080
410080
460080
6C0180
380300
180600
2C0C00
C7F800
ENDCHAR
STARTCHAR 220F
ENCODING 8719
SWIDTH 576 0
DWIDTH 16 0
BBX 14 23 1 -3
BITMAP
FFFC
FFFC
3030
3030
3030
3030
3030
3030
3030
3030
3030
3030
3030
3030
3030
3030
3030
3030
3030
3030
3030
3030
3030
ENDCHAR
STARTCHAR 2211
ENCODING 8721
SWIDTH 468 0
DWIDTH 13 0
BBX 11 23 1 -3
BITMAP
FFE0
FFE0
6000
7000
3000
1800
1800
0C00
0C00
0600
0600
0300
0600
0600
0C00
0C00
1800
3000
3000
6000
6000
FFE0
FFE0
ENDCHAR
STARTCHAR 2212
ENCODING 8722
SWIDTH 540 0
DWIDTH 15 0
BBX 13 2 1 8
BITMAP
FFF8
FFF8
ENDCHAR
STARTCHAR 221A
ENCODING 8730
SWIDTH 612 0
DWIDTH 17 0
BBX 15 23 1 -3
BITMAP
003E
003E
0030
0060
0060
0060
0060
00C0
00C0
00C0
0180
C180
6180
6180
6300
3300
3300
3200
1E00
1E00
1E00
1C00
0C00
ENDCHAR
STARTCHAR 221E
ENCODING 8734
SWIDTH 756 0
DWIDTH 21 0
BBX 19 8 1 5
BITMAP
3F0F80
739CE0
60F060
C0E020
C06020
40F060
619860
3F0FC0
ENDCHAR
STARTCHAR 222B
ENCODING 8747
SWIDTH 468 0
DWIDTH 13 0
BBX 11 23 1 -3
BITMAP
00E0
01E0
0180
0300
0300
0300
0300
0200
0600
0600
0600
0600
0400
0C00
0C00
0C00
0C00
0C00
1800
1800
1800
7000
E000
ENDCHAR
STARTCHAR 2248
ENCODING 8776
SWIDTH 504 0
DWIDTH 14 0
BBX 13 8 1 5
BITMAP
FE08
FFF8
00E0
0000
0000
7800
FFF8
87F8
ENDCHAR
STARTCHAR 2260
ENCODING 8800
SWIDTH 540 0
DWIDTH 15 0
BBX 13 12 1 3
BITMAP
0180
0180
FFF8
FFF8
0300
0200
0600
0600
FFF8
FFF8
0C00
1800
ENDCHAR
STARTCHAR 2264
ENCODING 8804
SWIDTH 540 0
DWIDTH 15 0
BBX 13 11 1 3
BITMAP
0038
03F0
3F00
F000
FC00
1FC0
01F8
0018
0000
FFF8
FFF8
ENDCHAR
STARTCHAR 2265
ENCODING 8805
SWIDTH 540 0
DWIDTH 15 0
BBX 13 11 1 3
BITMAP
E000
7E00
07E0
0078
00F8
1FC0
FC00
C000
0000
FFF8
FFF8
ENDCHAR
STARTCHAR 25CA
ENCODING 9674
SWIDTH 468 0
DWIDTH 13 0
BBX 9 16 2 2
BITMAP
1C00
1C00
3600
3600
6300
6300
C180
C180
C180
C180
6300
6300
3600
3600
1C00
1C00
ENDCHAR
ENDFONT
